<svg xmlns="http://www.w3.org/2000/svg" version="1.1" xmlns:xlink="http://www.w3.org/1999/xlink" width="1000" height="1000"><g clip-path="url(#SvgjsClipPath1273)"><rect width="1000" height="1000" fill="#454d53"></rect><g transform="matrix(1.4,0,0,1.4,150,374)"><svg xmlns="http://www.w3.org/2000/svg" version="1.1" xmlns:xlink="http://www.w3.org/1999/xlink" width="500" height="180"><svg width="500" height="180" viewBox="0 0 500 180" fill="none" xmlns="http://www.w3.org/2000/svg">
<path d="M278.633 23.6588C225.612 55.1716 230.28 103.9 239.242 124.325C282.76 54.2963 361.167 62.2162 394.931 74.9297C309.396 68.427 263.002 111.403 250.497 133.704C280.509 143.082 310.521 141.832 342.409 128.702C404.674 103.063 428.278 57.2141 431.196 39.9154C404.935 37.4144 388.053 9.278 342.409 6.15174C320.505 4.65148 294.89 13.0295 278.633 23.6588Z" fill="#E48F31"></path>
<path fill-rule="evenodd" clip-rule="evenodd" d="M229.38 97.5152C232.377 105.052 235.485 112.865 237.686 123.175C235.777 126.549 234.161 129.864 233.014 133.179C165.486 72.6546 200.709 19.1745 226.761 0C227.661 1.37638 228.489 2.61382 229.262 3.73698C223.426 17.9143 218.073 49.8241 221.134 70.0285C222.787 80.9406 226.014 89.0547 229.38 97.5152Z" fill="#252624"></path>
<path fill-rule="evenodd" clip-rule="evenodd" d="M229.38 97.5152C232.377 105.052 235.485 112.865 237.686 123.175C235.777 126.549 234.161 129.864 233.014 133.179C165.486 72.6546 200.709 19.1745 226.761 0C227.661 1.37638 228.489 2.61382 229.262 3.73698C223.426 17.9143 218.073 49.8241 221.134 70.0285C222.787 80.9406 226.014 89.0547 229.38 97.5152Z" fill="#97B14D"></path>
<path fill-rule="evenodd" clip-rule="evenodd" d="M237.686 123.175C235.485 112.865 232.377 105.052 229.38 97.5152C226.014 89.0547 222.787 80.9406 221.134 70.0285C218.073 49.8241 223.426 17.9143 229.262 3.73698C234.314 11.0785 236.999 13.5375 241.874 18.0025C245.062 20.9224 249.187 24.7003 255.523 31.2627C264.276 39.391 266.588 61.3385 263.026 77.5316C258.881 90.3114 251.874 100.992 245.484 110.734C242.665 115.03 239.966 119.145 237.686 123.175Z" fill="#252624"></path>
<path fill-rule="evenodd" clip-rule="evenodd" d="M237.686 123.175C235.485 112.865 232.377 105.052 229.38 97.5152C226.014 89.0547 222.787 80.9406 221.134 70.0285C218.073 49.8241 223.426 17.9143 229.262 3.73698C234.314 11.0785 236.999 13.5375 241.874 18.0025C245.062 20.9224 249.187 24.7003 255.523 31.2627C264.276 39.391 266.588 61.3385 263.026 77.5316C258.881 90.3114 251.874 100.992 245.484 110.734C242.665 115.03 239.966 119.145 237.686 123.175Z" fill="#D0E593"></path>
<path d="M2.97694 115.129C-13.5298 124.633 47.4735 122.44 112.5 119.939C112.5 119.939 114.5 118.439 117 112.939C118 109.439 128.31 105.448 129 104.5C130.5 102.439 19.4837 105.625 2.97694 115.129Z" fill="#97B14D"></path>
<path d="M497.85 115.751C514.356 125.254 430.526 122.628 365.5 120.127L390.534 105.121C437.428 104.704 481.343 106.247 497.85 115.751Z" fill="#97B14D"></path>
<path d="M126.071 98.0642C109.189 82.4328 90.8486 60.3405 79.1772 51.1701C81.6782 45.5428 95.4338 33.6629 111.69 28.6609C127.947 23.6589 172.34 31.1619 195.475 59.2984C213.982 81.8075 217.358 112.862 216.733 125.575C205.062 97.4389 165.587 42.5416 101.061 48.0438C121.278 46.5849 171.215 60.799 209.23 129.327C188.597 131.828 142.752 113.51 126.071 98.0642Z" fill="#97B14D"></path>
<path d="M172.296 97.6881C206.278 99.7812 230.2 128.767 237.914 142.998C256.716 119.84 275.572 112.785 295.341 111.359C315.109 109.934 336.708 126.433 345.036 134.861C331.641 148.531 308.816 168.118 285.188 165.614C269.768 163.979 250.419 153.545 243.604 148.631C216.991 156.499 204.077 183.424 163.662 179.14C117 168.535 109.524 173.821 96.737 175.819C92.0611 125.023 129.818 95.0718 172.296 97.6881Z" fill="#80AA3E"></path>
<path d="M180.94 105.581C159.106 102.763 140.944 104.485 117.864 114.614C128.509 103.167 156.304 94.7956 183.238 95.7643C206.368 96.5961 226.207 113.523 233.226 122.441C244.982 112.369 266.913 107.149 289.495 107.656C314.623 108.221 340.797 125.035 344.99 134.91C323.924 120.102 314.423 121.616 297.145 118.527C269.566 113.597 246.013 134.275 237.824 144.306C224.879 124.071 208.232 109.102 180.94 105.581Z" fill="#687A35"></path>
</svg></svg></g></g><defs><clipPath id="SvgjsClipPath1273"><rect width="1000" height="1000" x="0" y="0" rx="350" ry="350"></rect></clipPath></defs></svg>