<svg width="614" height="608" viewBox="0 0 614 608" fill="none" xmlns="http://www.w3.org/2000/svg">
<path d="M1.45743 414.567C-15.0493 424.071 112.753 428.323 177.779 425.822L189.034 411.441C142.14 411.024 17.9641 405.063 1.45743 414.567Z" fill="#97B14D"/>
<path d="M597.95 417.068C614.457 407.564 472.899 407.769 407.873 410.27L396.618 424.651C443.512 425.068 581.444 426.572 597.95 417.068Z" fill="#97B14D"/>
<path d="M327.633 83.6588C274.612 115.172 279.28 163.9 288.242 184.325C331.76 114.296 410.167 122.216 443.931 134.93C358.396 128.427 312.002 171.403 299.497 193.704C329.509 203.082 359.521 201.832 391.409 188.702C453.674 163.063 477.278 117.214 480.195 99.9154C453.935 97.4144 437.053 69.278 391.409 66.1517C369.505 64.6515 343.89 73.0295 327.633 83.6588Z" fill="#E48F31"/>
<path fill-rule="evenodd" clip-rule="evenodd" d="M265.225 98.0152C268.223 105.552 271.33 113.365 273.531 123.675C271.623 127.049 270.007 130.364 268.859 133.679C201.332 73.1546 236.555 19.6745 262.607 0.5C263.507 1.87638 264.335 3.11382 265.108 4.23698C259.272 18.4143 253.918 50.3241 256.98 70.5285C258.633 81.4406 261.86 89.5547 265.225 98.0152Z" fill="#252624"/>
<path fill-rule="evenodd" clip-rule="evenodd" d="M265.225 98.0152C268.223 105.552 271.33 113.365 273.531 123.675C271.623 127.049 270.007 130.364 268.859 133.679C201.332 73.1546 236.555 19.6745 262.607 0.5C263.507 1.87638 264.335 3.11382 265.108 4.23698C259.272 18.4143 253.918 50.3241 256.98 70.5285C258.633 81.4406 261.86 89.5547 265.225 98.0152Z" fill="#97B14D"/>
<path fill-rule="evenodd" clip-rule="evenodd" d="M273.531 123.675C271.33 113.365 268.223 105.552 265.225 98.0152C261.86 89.5547 258.633 81.4406 256.98 70.5285C253.918 50.3241 259.272 18.4143 265.108 4.23698C270.159 11.5785 272.844 14.0375 277.719 18.5025C280.908 21.4224 285.032 25.2003 291.369 31.7627C300.122 39.891 302.434 61.8385 298.872 78.0316C294.727 90.8114 287.72 101.492 281.329 111.234C278.511 115.53 275.812 119.645 273.531 123.675Z" fill="#252624"/>
<path fill-rule="evenodd" clip-rule="evenodd" d="M273.531 123.675C271.33 113.365 268.223 105.552 265.225 98.0152C261.86 89.5547 258.633 81.4406 256.98 70.5285C253.918 50.3241 259.272 18.4143 265.108 4.23698C270.159 11.5785 272.844 14.0375 277.719 18.5025C280.908 21.4224 285.032 25.2003 291.369 31.7627C300.122 39.891 302.434 61.8385 298.872 78.0316C294.727 90.8114 287.72 101.492 281.329 111.234C278.511 115.53 275.812 119.645 273.531 123.675Z" fill="#D0E593"/>
<path d="M3.75154 173.07C-12.7552 182.574 113.171 179.948 178.198 177.447L165.067 162.441C118.173 162.024 20.2583 163.566 3.75154 173.07Z" fill="#97B14D"/>
<path d="M612.124 173.131C628.631 182.635 502.705 180.009 437.678 177.508L450.809 162.502C497.703 162.085 595.618 163.627 612.124 173.131Z" fill="#97B14D"/>
<path d="M175.071 158.064C158.189 142.433 139.849 120.34 128.177 111.17C130.678 105.543 144.434 93.6629 160.69 88.6609C176.947 83.6589 221.34 91.1619 244.475 119.298C262.982 141.808 266.358 172.862 265.733 185.575C254.062 157.439 214.587 102.542 150.061 108.044C170.278 106.585 220.215 120.799 258.23 189.327C237.597 191.828 191.752 173.51 175.071 158.064Z" fill="#97B14D"/>
<path d="M80.3207 368.372L80.2127 364.664H90.3287C90.4487 364.832 90.5567 365.084 90.6527 365.42C90.7487 365.732 90.7967 366.068 90.7967 366.428C90.7967 367.052 90.6527 367.532 90.3647 367.868C90.0767 368.204 89.6807 368.372 89.1767 368.372H80.3207ZM83.5247 364.664L83.5967 368.372H73.4807C73.3607 368.18 73.2527 367.928 73.1567 367.616C73.0607 367.304 73.0127 366.956 73.0127 366.572C73.0127 365.924 73.1567 365.444 73.4447 365.132C73.7327 364.82 74.1287 364.664 74.6327 364.664H83.5247ZM79.6007 367.4H84.1367V386.444C83.9447 386.516 83.6447 386.576 83.2367 386.624C82.8527 386.696 82.4567 386.732 82.0487 386.732C81.1607 386.732 80.5247 386.576 80.1407 386.264C79.7807 385.928 79.6007 385.376 79.6007 384.608V367.4ZM99.655 375.248H102.643C104.059 375.248 105.187 374.936 106.027 374.312C106.867 373.688 107.287 372.764 107.287 371.54C107.287 370.34 106.867 369.428 106.027 368.804C105.187 368.18 103.951 367.868 102.319 367.868C101.839 367.868 101.371 367.892 100.915 367.94C100.459 367.964 100.039 368.012 99.655 368.084V375.248ZM102.967 378.812H95.119V366.464C95.119 366.032 95.239 365.696 95.479 365.456C95.743 365.216 96.079 365.024 96.487 364.88C97.255 364.64 98.155 364.46 99.187 364.34C100.243 364.22 101.311 364.16 102.391 364.16C105.559 364.16 107.923 364.82 109.483 366.14C111.067 367.436 111.859 369.224 111.859 371.504C111.859 372.944 111.487 374.216 110.743 375.32C110.023 376.424 109.003 377.288 107.683 377.912C106.363 378.512 104.791 378.812 102.967 378.812ZM102.355 377.66L106.243 376.544C106.843 377.336 107.455 378.14 108.079 378.956C108.727 379.748 109.339 380.528 109.915 381.296C110.515 382.04 111.043 382.724 111.499 383.348C111.979 383.972 112.351 384.488 112.615 384.896C112.447 385.496 112.123 385.964 111.643 386.3C111.187 386.636 110.683 386.804 110.131 386.804C109.411 386.804 108.847 386.648 108.439 386.336C108.055 386 107.683 385.556 107.323 385.004L102.355 377.66ZM95.119 377.228H99.691V386.444C99.499 386.516 99.199 386.576 98.791 386.624C98.407 386.696 97.999 386.732 97.567 386.732C96.703 386.732 96.079 386.576 95.695 386.264C95.311 385.928 95.119 385.376 95.119 384.608V377.228ZM126.023 368.372H125.843C125.531 369.236 125.183 370.22 124.799 371.324C124.439 372.428 124.055 373.58 123.647 374.78C123.239 375.956 122.855 377.096 122.495 378.2L121.991 380.432C121.847 380.888 121.691 381.392 121.523 381.944C121.379 382.496 121.211 383.06 121.019 383.636C120.851 384.188 120.683 384.716 120.515 385.22C120.371 385.724 120.239 386.168 120.119 386.552C119.879 386.624 119.615 386.684 119.327 386.732C119.063 386.804 118.739 386.84 118.355 386.84C117.587 386.84 116.975 386.696 116.519 386.408C116.087 386.096 115.871 385.64 115.871 385.04C115.871 384.776 115.907 384.5 115.979 384.212C116.075 383.924 116.171 383.6 116.267 383.24C116.507 382.448 116.831 381.464 117.239 380.288C117.647 379.088 118.091 377.792 118.571 376.4C119.051 375.008 119.543 373.604 120.047 372.188C120.575 370.772 121.067 369.452 121.523 368.228C121.979 366.98 122.375 365.936 122.711 365.096C122.999 364.928 123.443 364.772 124.043 364.628C124.643 364.484 125.255 364.412 125.879 364.412C126.695 364.412 127.439 364.532 128.111 364.772C128.807 365.012 129.239 365.396 129.407 365.924C129.911 367.244 130.451 368.756 131.027 370.46C131.603 372.164 132.191 373.94 132.791 375.788C133.391 377.636 133.967 379.436 134.519 381.188C135.071 382.94 135.563 384.524 135.995 385.94C135.755 386.204 135.419 386.42 134.987 386.588C134.579 386.756 134.099 386.84 133.547 386.84C132.755 386.84 132.179 386.696 131.819 386.408C131.483 386.096 131.219 385.628 131.027 385.004L129.551 380.288L129.083 377.984C128.699 376.76 128.315 375.56 127.931 374.384C127.571 373.184 127.223 372.068 126.887 371.036C126.551 370.004 126.263 369.116 126.023 368.372ZM119.975 381.296L121.667 377.732H130.667L131.351 381.296H119.975ZM154.981 375.5C154.981 373.724 154.657 372.284 154.009 371.18C153.385 370.052 152.521 369.224 151.417 368.696C150.337 368.144 149.101 367.868 147.709 367.868C147.181 367.868 146.677 367.892 146.197 367.94C145.741 367.964 145.297 368.012 144.865 368.084V383.024C145.297 383.12 145.777 383.192 146.305 383.24C146.833 383.264 147.361 383.276 147.889 383.276C150.121 383.276 151.861 382.628 153.109 381.332C154.357 380.012 154.981 378.068 154.981 375.5ZM159.661 375.428C159.661 378.02 159.169 380.18 158.185 381.908C157.201 383.612 155.833 384.884 154.081 385.724C152.329 386.564 150.265 386.984 147.889 386.984C147.097 386.984 146.161 386.936 145.081 386.84C144.001 386.768 143.005 386.576 142.093 386.264C140.917 385.856 140.329 385.148 140.329 384.14V366.464C140.329 366.008 140.449 365.66 140.689 365.42C140.953 365.18 141.289 364.988 141.697 364.844C142.585 364.58 143.545 364.4 144.577 364.304C145.633 364.208 146.617 364.16 147.529 364.16C149.953 364.16 152.065 364.58 153.865 365.42C155.689 366.236 157.105 367.472 158.113 369.128C159.145 370.784 159.661 372.884 159.661 375.428ZM164.815 372.08H169.351V386.444C169.159 386.516 168.871 386.576 168.487 386.624C168.103 386.696 167.695 386.732 167.263 386.732C166.399 386.732 165.775 386.576 165.391 386.264C165.007 385.928 164.815 385.376 164.815 384.608V372.08ZM169.351 377.336H164.815V364.664C165.007 364.616 165.307 364.556 165.715 364.484C166.123 364.412 166.531 364.376 166.939 364.376C167.779 364.376 168.391 364.532 168.775 364.844C169.159 365.132 169.351 365.684 169.351 366.5V377.336ZM175.694 369.524L179.762 369.416C179.858 370.328 179.93 371.288 179.978 372.296C180.05 373.304 180.086 374.3 180.086 375.284C180.11 376.268 180.122 377.216 180.122 378.128V386.48C179.954 386.528 179.666 386.576 179.258 386.624C178.874 386.696 178.49 386.732 178.106 386.732C177.242 386.732 176.618 386.588 176.234 386.3C175.874 385.988 175.694 385.448 175.694 384.68V369.524ZM194.234 381.584L190.13 381.692C189.938 379.844 189.83 378.044 189.806 376.292C189.782 374.516 189.77 372.8 189.77 371.144V364.664C189.986 364.616 190.274 364.556 190.634 364.484C191.018 364.412 191.426 364.376 191.858 364.376C192.698 364.376 193.298 364.532 193.658 364.844C194.042 365.156 194.234 365.684 194.234 366.428V381.584ZM194.234 380.108V377.84V385.94C193.946 386.18 193.562 386.372 193.082 386.516C192.602 386.684 192.05 386.768 191.426 386.768C190.682 386.768 190.01 386.648 189.41 386.408C188.834 386.168 188.342 385.64 187.934 384.824L182.642 375.356C182.354 374.78 182.042 374.18 181.706 373.556C181.394 372.932 181.094 372.32 180.806 371.72C180.518 371.12 180.254 370.568 180.014 370.064L175.694 371.072V365.42C175.958 365.084 176.342 364.832 176.846 364.664C177.374 364.496 177.938 364.412 178.538 364.412C179.258 364.412 179.918 364.532 180.518 364.772C181.118 365.012 181.622 365.528 182.03 366.32L187.322 375.788C187.634 376.364 187.946 376.964 188.258 377.588C188.594 378.212 188.894 378.824 189.158 379.424C189.446 380.024 189.698 380.576 189.914 381.08L194.234 380.108ZM219 375.896V383.528C219 384.104 218.868 384.56 218.604 384.896C218.364 385.232 217.968 385.544 217.416 385.832C216.792 386.168 215.892 386.456 214.716 386.696C213.564 386.936 212.4 387.056 211.224 387.056C208.944 387.056 206.904 386.66 205.104 385.868C203.328 385.052 201.924 383.804 200.892 382.124C199.86 380.42 199.344 378.248 199.344 375.608C199.344 373.064 199.872 370.94 200.928 369.236C201.984 367.532 203.388 366.248 205.14 365.384C206.916 364.52 208.872 364.088 211.008 364.088C212.448 364.088 213.696 364.244 214.752 364.556C215.832 364.868 216.66 365.276 217.236 365.78C217.836 366.284 218.136 366.836 218.136 367.436C218.136 367.892 218.004 368.3 217.74 368.66C217.5 369.02 217.224 369.296 216.912 369.488C216.264 369.08 215.496 368.708 214.608 368.372C213.72 368.012 212.628 367.832 211.332 367.832C209.94 367.832 208.68 368.132 207.552 368.732C206.448 369.332 205.584 370.22 204.96 371.396C204.336 372.548 204.024 373.952 204.024 375.608C204.024 377.384 204.336 378.848 204.96 380C205.584 381.128 206.448 381.968 207.552 382.52C208.656 383.072 209.904 383.348 211.296 383.348C211.992 383.348 212.628 383.288 213.204 383.168C213.804 383.048 214.272 382.904 214.608 382.736V377.624H209.928C209.832 377.456 209.724 377.216 209.604 376.904C209.508 376.568 209.46 376.232 209.46 375.896C209.46 375.248 209.604 374.78 209.892 374.492C210.18 374.18 210.576 374.024 211.08 374.024H217.128C217.68 374.024 218.124 374.192 218.46 374.528C218.82 374.864 219 375.32 219 375.896ZM240.945 368.372H240.765C240.453 369.236 240.105 370.22 239.721 371.324C239.361 372.428 238.977 373.58 238.569 374.78C238.161 375.956 237.777 377.096 237.417 378.2L236.913 380.432C236.769 380.888 236.613 381.392 236.445 381.944C236.301 382.496 236.133 383.06 235.941 383.636C235.773 384.188 235.605 384.716 235.437 385.22C235.293 385.724 235.161 386.168 235.041 386.552C234.801 386.624 234.537 386.684 234.249 386.732C233.985 386.804 233.661 386.84 233.277 386.84C232.509 386.84 231.897 386.696 231.441 386.408C231.009 386.096 230.793 385.64 230.793 385.04C230.793 384.776 230.829 384.5 230.901 384.212C230.997 383.924 231.093 383.6 231.189 383.24C231.429 382.448 231.753 381.464 232.161 380.288C232.569 379.088 233.013 377.792 233.493 376.4C233.973 375.008 234.465 373.604 234.969 372.188C235.497 370.772 235.989 369.452 236.445 368.228C236.901 366.98 237.297 365.936 237.633 365.096C237.921 364.928 238.365 364.772 238.965 364.628C239.565 364.484 240.177 364.412 240.801 364.412C241.617 364.412 242.361 364.532 243.033 364.772C243.729 365.012 244.161 365.396 244.329 365.924C244.833 367.244 245.373 368.756 245.949 370.46C246.525 372.164 247.113 373.94 247.713 375.788C248.313 377.636 248.889 379.436 249.441 381.188C249.993 382.94 250.485 384.524 250.917 385.94C250.677 386.204 250.341 386.42 249.909 386.588C249.501 386.756 249.021 386.84 248.469 386.84C247.677 386.84 247.101 386.696 246.741 386.408C246.405 386.096 246.141 385.628 245.949 385.004L244.473 380.288L244.005 377.984C243.621 376.76 243.237 375.56 242.853 374.384C242.493 373.184 242.145 372.068 241.809 371.036C241.473 370.004 241.185 369.116 240.945 368.372ZM234.897 381.296L236.589 377.732H245.589L246.273 381.296H234.897ZM255.25 369.524L259.318 369.416C259.414 370.328 259.486 371.288 259.534 372.296C259.606 373.304 259.642 374.3 259.642 375.284C259.666 376.268 259.678 377.216 259.678 378.128V386.48C259.51 386.528 259.222 386.576 258.814 386.624C258.43 386.696 258.046 386.732 257.662 386.732C256.798 386.732 256.174 386.588 255.79 386.3C255.43 385.988 255.25 385.448 255.25 384.68V369.524ZM273.79 381.584L269.686 381.692C269.494 379.844 269.386 378.044 269.362 376.292C269.338 374.516 269.326 372.8 269.326 371.144V364.664C269.542 364.616 269.83 364.556 270.19 364.484C270.574 364.412 270.982 364.376 271.414 364.376C272.254 364.376 272.854 364.532 273.214 364.844C273.598 365.156 273.79 365.684 273.79 366.428V381.584ZM273.79 380.108V377.84V385.94C273.502 386.18 273.118 386.372 272.638 386.516C272.158 386.684 271.606 386.768 270.982 386.768C270.238 386.768 269.566 386.648 268.966 386.408C268.39 386.168 267.898 385.64 267.49 384.824L262.198 375.356C261.91 374.78 261.598 374.18 261.262 373.556C260.95 372.932 260.65 372.32 260.362 371.72C260.074 371.12 259.81 370.568 259.57 370.064L255.25 371.072V365.42C255.514 365.084 255.898 364.832 256.402 364.664C256.93 364.496 257.494 364.412 258.094 364.412C258.814 364.412 259.474 364.532 260.074 364.772C260.674 365.012 261.178 365.528 261.586 366.32L266.878 375.788C267.19 376.364 267.502 376.964 267.814 377.588C268.15 378.212 268.45 378.824 268.714 379.424C269.002 380.024 269.254 380.576 269.47 381.08L273.79 380.108ZM294.704 375.5C294.704 373.724 294.38 372.284 293.732 371.18C293.108 370.052 292.244 369.224 291.14 368.696C290.06 368.144 288.824 367.868 287.432 367.868C286.904 367.868 286.4 367.892 285.92 367.94C285.464 367.964 285.02 368.012 284.588 368.084V383.024C285.02 383.12 285.5 383.192 286.028 383.24C286.556 383.264 287.084 383.276 287.612 383.276C289.844 383.276 291.584 382.628 292.832 381.332C294.08 380.012 294.704 378.068 294.704 375.5ZM299.384 375.428C299.384 378.02 298.892 380.18 297.908 381.908C296.924 383.612 295.556 384.884 293.804 385.724C292.052 386.564 289.988 386.984 287.612 386.984C286.82 386.984 285.884 386.936 284.804 386.84C283.724 386.768 282.728 386.576 281.816 386.264C280.64 385.856 280.052 385.148 280.052 384.14V366.464C280.052 366.008 280.172 365.66 280.412 365.42C280.676 365.18 281.012 364.988 281.42 364.844C282.308 364.58 283.268 364.4 284.3 364.304C285.356 364.208 286.34 364.16 287.252 364.16C289.676 364.16 291.788 364.58 293.588 365.42C295.412 366.236 296.828 367.472 297.836 369.128C298.868 370.784 299.384 372.884 299.384 375.428ZM318.802 383.348C320.194 383.348 321.226 383.072 321.898 382.52C322.57 381.944 322.906 381.236 322.906 380.396C322.906 379.652 322.642 379.052 322.114 378.596C321.61 378.14 320.83 377.744 319.774 377.408L317.434 376.688C316.234 376.28 315.178 375.824 314.266 375.32C313.378 374.816 312.682 374.168 312.178 373.376C311.698 372.56 311.458 371.564 311.458 370.388C311.458 368.444 312.178 366.908 313.618 365.78C315.082 364.652 317.074 364.088 319.594 364.088C320.938 364.088 322.126 364.232 323.158 364.52C324.214 364.784 325.042 365.156 325.642 365.636C326.266 366.116 326.578 366.68 326.578 367.328C326.578 367.784 326.458 368.192 326.218 368.552C326.002 368.888 325.726 369.164 325.39 369.38C324.838 368.972 324.082 368.624 323.122 368.336C322.162 368.024 321.118 367.868 319.99 367.868C318.742 367.868 317.782 368.096 317.11 368.552C316.438 369.008 316.102 369.62 316.102 370.388C316.102 371.012 316.33 371.516 316.786 371.9C317.266 372.284 317.986 372.62 318.946 372.908L321.034 373.52C323.098 374.144 324.706 374.996 325.858 376.076C327.01 377.132 327.586 378.584 327.586 380.432C327.586 382.4 326.83 383.996 325.318 385.22C323.83 386.444 321.694 387.056 318.91 387.056C317.446 387.056 316.15 386.9 315.022 386.588C313.894 386.276 312.994 385.844 312.322 385.292C311.674 384.74 311.35 384.116 311.35 383.42C311.35 382.892 311.518 382.436 311.854 382.052C312.19 381.668 312.55 381.38 312.934 381.188C313.558 381.716 314.362 382.208 315.346 382.664C316.33 383.12 317.482 383.348 318.802 383.348ZM332.486 372.08H337.022V386.444C336.83 386.516 336.542 386.576 336.158 386.624C335.774 386.696 335.366 386.732 334.934 386.732C334.07 386.732 333.446 386.576 333.062 386.264C332.678 385.928 332.486 385.376 332.486 384.608V372.08ZM337.022 377.336H332.486V364.664C332.678 364.616 332.978 364.556 333.386 364.484C333.794 364.412 334.202 364.376 334.61 364.376C335.45 364.376 336.062 364.532 336.446 364.844C336.83 365.132 337.022 365.684 337.022 366.5V377.336ZM358.018 375.5C358.018 373.724 357.694 372.284 357.046 371.18C356.422 370.052 355.558 369.224 354.454 368.696C353.374 368.144 352.138 367.868 350.746 367.868C350.218 367.868 349.714 367.892 349.234 367.94C348.778 367.964 348.334 368.012 347.902 368.084V383.024C348.334 383.12 348.814 383.192 349.342 383.24C349.87 383.264 350.398 383.276 350.926 383.276C353.158 383.276 354.898 382.628 356.146 381.332C357.394 380.012 358.018 378.068 358.018 375.5ZM362.698 375.428C362.698 378.02 362.206 380.18 361.222 381.908C360.238 383.612 358.87 384.884 357.118 385.724C355.366 386.564 353.302 386.984 350.926 386.984C350.134 386.984 349.198 386.936 348.118 386.84C347.038 386.768 346.042 386.576 345.13 386.264C343.954 385.856 343.366 385.148 343.366 384.14V366.464C343.366 366.008 343.486 365.66 343.726 365.42C343.99 365.18 344.326 364.988 344.734 364.844C345.622 364.58 346.582 364.4 347.614 364.304C348.67 364.208 349.654 364.16 350.566 364.16C352.99 364.16 355.102 364.58 356.902 365.42C358.726 366.236 360.142 367.472 361.15 369.128C362.182 370.784 362.698 372.884 362.698 375.428ZM372.406 368.372L372.298 364.664H382.414C382.534 364.832 382.642 365.084 382.738 365.42C382.834 365.732 382.882 366.068 382.882 366.428C382.882 367.052 382.738 367.532 382.45 367.868C382.162 368.204 381.766 368.372 381.262 368.372H372.406ZM375.61 364.664L375.682 368.372H365.566C365.446 368.18 365.338 367.928 365.242 367.616C365.146 367.304 365.098 366.956 365.098 366.572C365.098 365.924 365.242 365.444 365.53 365.132C365.818 364.82 366.214 364.664 366.718 364.664H375.61ZM371.686 367.4H376.222V386.444C376.03 386.516 375.73 386.576 375.322 386.624C374.938 386.696 374.542 386.732 374.134 386.732C373.246 386.732 372.61 386.576 372.226 386.264C371.866 385.928 371.686 385.376 371.686 384.608V367.4ZM391.74 375.248H394.728C396.144 375.248 397.272 374.936 398.112 374.312C398.952 373.688 399.372 372.764 399.372 371.54C399.372 370.34 398.952 369.428 398.112 368.804C397.272 368.18 396.036 367.868 394.404 367.868C393.924 367.868 393.456 367.892 393 367.94C392.544 367.964 392.124 368.012 391.74 368.084V375.248ZM395.052 378.812H387.204V366.464C387.204 366.032 387.324 365.696 387.564 365.456C387.828 365.216 388.164 365.024 388.572 364.88C389.34 364.64 390.24 364.46 391.272 364.34C392.328 364.22 393.396 364.16 394.476 364.16C397.644 364.16 400.008 364.82 401.568 366.14C403.152 367.436 403.944 369.224 403.944 371.504C403.944 372.944 403.572 374.216 402.828 375.32C402.108 376.424 401.088 377.288 399.768 377.912C398.448 378.512 396.876 378.812 395.052 378.812ZM394.44 377.66L398.328 376.544C398.928 377.336 399.54 378.14 400.164 378.956C400.812 379.748 401.424 380.528 402 381.296C402.6 382.04 403.128 382.724 403.584 383.348C404.064 383.972 404.436 384.488 404.7 384.896C404.532 385.496 404.208 385.964 403.728 386.3C403.272 386.636 402.768 386.804 402.216 386.804C401.496 386.804 400.932 386.648 400.524 386.336C400.14 386 399.768 385.556 399.408 385.004L394.44 377.66ZM387.204 377.228H391.776V386.444C391.584 386.516 391.284 386.576 390.876 386.624C390.492 386.696 390.084 386.732 389.652 386.732C388.788 386.732 388.164 386.576 387.78 386.264C387.396 385.928 387.204 385.376 387.204 384.608V377.228ZM409.511 372.08H414.047V386.444C413.855 386.516 413.567 386.576 413.183 386.624C412.799 386.696 412.391 386.732 411.959 386.732C411.095 386.732 410.471 386.576 410.087 386.264C409.703 385.928 409.511 385.376 409.511 384.608V372.08ZM414.047 377.336H409.511V364.664C409.703 364.616 410.003 364.556 410.411 364.484C410.819 364.412 411.227 364.376 411.635 364.376C412.475 364.376 413.087 364.532 413.471 364.844C413.855 365.132 414.047 365.684 414.047 366.5V377.336ZM432.018 373.592V376.94H423.306V373.592H432.018ZM428.814 376.94L429.498 374.384C431.346 374.384 432.882 374.636 434.106 375.14C435.354 375.644 436.29 376.34 436.914 377.228C437.538 378.092 437.85 379.112 437.85 380.288C437.85 382.568 437.01 384.26 435.33 385.364C433.65 386.444 431.274 386.984 428.202 386.984C427.602 386.984 426.942 386.96 426.222 386.912C425.526 386.888 424.818 386.816 424.098 386.696C423.402 386.576 422.754 386.432 422.154 386.264C420.978 385.856 420.39 385.148 420.39 384.14V366.464C420.39 366.032 420.51 365.696 420.75 365.456C421.014 365.192 421.35 365 421.758 364.88C422.574 364.616 423.522 364.436 424.602 364.34C425.682 364.22 426.798 364.16 427.95 364.16C430.83 364.16 433.062 364.664 434.646 365.672C436.23 366.68 437.022 368.216 437.022 370.28C437.022 371.384 436.71 372.356 436.086 373.196C435.486 374.012 434.574 374.648 433.35 375.104C432.15 375.56 430.638 375.788 428.814 375.788L428.526 373.592C429.846 373.592 430.83 373.328 431.478 372.8C432.126 372.272 432.45 371.528 432.45 370.568C432.45 369.632 432.078 368.924 431.334 368.444C430.59 367.94 429.474 367.688 427.986 367.688C427.386 367.688 426.81 367.712 426.258 367.76C425.706 367.808 425.238 367.868 424.854 367.94V383.096C425.31 383.216 425.862 383.3 426.51 383.348C427.158 383.396 427.794 383.42 428.418 383.42C429.906 383.42 431.07 383.156 431.91 382.628C432.774 382.076 433.206 381.236 433.206 380.108C433.206 379.076 432.834 378.296 432.09 377.768C431.346 377.216 430.254 376.94 428.814 376.94ZM452.084 387.056C450.188 387.056 448.556 386.72 447.188 386.048C445.82 385.352 444.776 384.38 444.056 383.132C443.36 381.884 443.012 380.42 443.012 378.74V376.148H447.548V378.56C447.548 380.096 447.968 381.284 448.808 382.124C449.672 382.94 450.764 383.348 452.084 383.348C453.38 383.348 454.46 382.94 455.324 382.124C456.188 381.284 456.62 380.096 456.62 378.56V376.148H461.192V378.74C461.192 380.42 460.832 381.884 460.112 383.132C459.392 384.38 458.348 385.352 456.98 386.048C455.636 386.72 454.004 387.056 452.084 387.056ZM447.548 377.408H443.012V364.664C443.204 364.616 443.492 364.556 443.876 364.484C444.284 364.412 444.692 364.376 445.1 364.376C445.964 364.376 446.588 364.532 446.972 364.844C447.356 365.132 447.548 365.684 447.548 366.5V377.408ZM461.192 377.444H456.62V364.664C456.812 364.616 457.112 364.556 457.52 364.484C457.928 364.412 458.336 364.376 458.744 364.376C459.584 364.376 460.196 364.532 460.58 364.844C460.988 365.132 461.192 365.684 461.192 366.5V377.444ZM472.721 368.372L472.613 364.664H482.729C482.849 364.832 482.957 365.084 483.053 365.42C483.149 365.732 483.197 366.068 483.197 366.428C483.197 367.052 483.053 367.532 482.765 367.868C482.477 368.204 482.081 368.372 481.577 368.372H472.721ZM475.925 364.664L475.997 368.372H465.881C465.761 368.18 465.653 367.928 465.557 367.616C465.461 367.304 465.413 366.956 465.413 366.572C465.413 365.924 465.557 365.444 465.845 365.132C466.133 364.82 466.529 364.664 467.033 364.664H475.925ZM472.001 367.4H476.537V386.444C476.345 386.516 476.045 386.576 475.637 386.624C475.253 386.696 474.857 386.732 474.449 386.732C473.561 386.732 472.925 386.576 472.541 386.264C472.181 385.928 472.001 385.376 472.001 384.608V367.4ZM487.555 372.08H492.091V386.444C491.899 386.516 491.611 386.576 491.227 386.624C490.843 386.696 490.435 386.732 490.003 386.732C489.139 386.732 488.515 386.576 488.131 386.264C487.747 385.928 487.555 385.376 487.555 384.608V372.08ZM492.091 377.336H487.555V364.664C487.747 364.616 488.047 364.556 488.455 364.484C488.863 364.412 489.271 364.376 489.679 364.376C490.519 364.376 491.131 364.532 491.515 364.844C491.899 365.132 492.091 365.684 492.091 366.5V377.336ZM519.062 375.572C519.062 378.068 518.582 380.18 517.622 381.908C516.686 383.612 515.39 384.896 513.734 385.76C512.102 386.624 510.242 387.056 508.154 387.056C506.09 387.056 504.23 386.624 502.574 385.76C500.942 384.896 499.646 383.612 498.686 381.908C497.75 380.18 497.282 378.068 497.282 375.572C497.282 373.076 497.762 370.976 498.722 369.272C499.706 367.568 501.014 366.284 502.646 365.42C504.302 364.532 506.138 364.088 508.154 364.088C510.218 364.088 512.066 364.532 513.698 365.42C515.354 366.284 516.662 367.568 517.622 369.272C518.582 370.976 519.062 373.076 519.062 375.572ZM514.418 375.572C514.418 373.052 513.842 371.132 512.69 369.812C511.562 368.492 510.05 367.832 508.154 367.832C506.306 367.832 504.806 368.492 503.654 369.812C502.526 371.132 501.962 373.052 501.962 375.572C501.962 378.116 502.526 380.048 503.654 381.368C504.782 382.688 506.294 383.348 508.19 383.348C510.086 383.348 511.598 382.688 512.726 381.368C513.854 380.048 514.418 378.116 514.418 375.572ZM524.221 369.524L528.289 369.416C528.385 370.328 528.457 371.288 528.505 372.296C528.577 373.304 528.613 374.3 528.613 375.284C528.637 376.268 528.649 377.216 528.649 378.128V386.48C528.481 386.528 528.193 386.576 527.785 386.624C527.401 386.696 527.017 386.732 526.633 386.732C525.769 386.732 525.145 386.588 524.761 386.3C524.401 385.988 524.221 385.448 524.221 384.68V369.524ZM542.761 381.584L538.657 381.692C538.465 379.844 538.357 378.044 538.333 376.292C538.309 374.516 538.297 372.8 538.297 371.144V364.664C538.513 364.616 538.801 364.556 539.161 364.484C539.545 364.412 539.953 364.376 540.385 364.376C541.225 364.376 541.825 364.532 542.185 364.844C542.569 365.156 542.761 365.684 542.761 366.428V381.584ZM542.761 380.108V377.84V385.94C542.473 386.18 542.089 386.372 541.609 386.516C541.129 386.684 540.577 386.768 539.953 386.768C539.209 386.768 538.537 386.648 537.937 386.408C537.361 386.168 536.869 385.64 536.461 384.824L531.169 375.356C530.881 374.78 530.569 374.18 530.233 373.556C529.921 372.932 529.621 372.32 529.333 371.72C529.045 371.12 528.781 370.568 528.541 370.064L524.221 371.072V365.42C524.485 365.084 524.869 364.832 525.373 364.664C525.901 364.496 526.465 364.412 527.065 364.412C527.785 364.412 528.445 364.532 529.045 364.772C529.645 365.012 530.149 365.528 530.557 366.32L535.849 375.788C536.161 376.364 536.473 376.964 536.785 377.588C537.121 378.212 537.421 378.824 537.685 379.424C537.973 380.024 538.225 380.576 538.441 381.08L542.761 380.108Z" fill="#DF8237"/>
<path d="M148.07 330.195V226.191H167.406V330.195H148.07ZM97.5327 330.195V226.191H116.869V330.195H97.5327ZM100.609 287.348V269.477H164.696V287.348H100.609ZM186.888 330.195V226.191H206.224V330.195H186.888ZM186.888 330.195V312.397H258.226V330.195H186.888ZM186.888 287.055V269.184H245.042V287.055H186.888ZM186.888 243.988V226.191H258.226V243.988H186.888ZM292.357 300.385V282.587H306.639C313.036 282.587 317.967 280.829 321.434 277.314C324.95 273.798 326.708 268.891 326.708 262.592C326.708 256.635 324.95 252.045 321.434 248.822C317.967 245.6 313.036 243.988 306.639 243.988H292.65V226.191H306.639C319.676 226.191 329.759 229.267 336.888 235.419C344.017 241.523 347.582 250.165 347.582 261.347C347.582 273.749 344.017 283.368 336.888 290.204C329.759 296.991 319.676 300.385 306.639 300.385H292.357ZM274.779 330.195V226.191H294.115V330.195H274.779ZM386.473 330.195V226.191H405.809V330.195H386.473ZM356.81 243.988V226.191H435.472V243.988H356.81ZM442.137 330.195L472.167 226.191H495.897L525.926 330.195H505.052L484.691 251.606H483.373L463.011 330.195H442.137ZM457.298 310.492V292.621H510.033V310.492H457.298Z" fill="#FBFAEC"/>
<path d="M231.344 428.188C265.358 426.688 292.202 452.99 301.373 466.329C317.629 441.319 335.637 432.315 355.145 428.814C374.653 425.312 397.87 439.443 407.041 446.946C395.161 461.952 374.528 483.836 350.768 483.836C335.262 483.836 314.92 475.499 307.625 471.331C281.99 481.96 271.986 510.097 231.344 510.097C183.825 504.469 176.947 510.514 164.442 513.848C154.438 463.828 188.827 430.064 231.344 428.188Z" fill="#80AA3E"/>
<path d="M240.098 418.932C218.089 418.431 208.21 423.934 186.326 436.439C195.705 423.934 214.462 410.803 241.348 408.927C264.437 407.317 285.95 422.058 293.87 430.186C304.499 418.932 325.758 411.428 348.267 409.553C373.315 407.465 389.95 425.184 395.161 434.563C372.652 422.058 374.528 420.807 357.02 419.557C329.076 417.561 307.834 440.607 300.747 451.445C285.741 432.687 267.609 419.557 240.098 418.932Z" fill="#D9D9D9"/>
<path d="M440.889 435.492V435.356H438.35C438.129 435.356 437.898 435.343 437.657 435.317C437.422 435.29 437.208 435.232 437.012 435.141C436.817 435.05 436.654 434.913 436.524 434.731C436.4 434.548 436.338 434.301 436.338 433.988C436.338 433.682 436.4 433.442 436.524 433.266C436.654 433.083 436.817 432.947 437.012 432.856C437.208 432.764 437.422 432.706 437.657 432.68C437.898 432.654 438.129 432.641 438.35 432.641H442.706C442.966 432.641 443.197 432.683 443.399 432.768C443.607 432.852 443.78 432.966 443.917 433.109C444.06 433.246 444.167 433.406 444.239 433.588C444.31 433.77 444.346 433.956 444.346 434.145C444.346 434.255 444.337 434.363 444.317 434.467C444.304 434.571 444.268 434.672 444.21 434.77L442.452 437.699C442.751 437.823 443.044 437.989 443.331 438.197C443.617 438.399 443.871 438.656 444.092 438.969C444.32 439.281 444.499 439.652 444.629 440.082C444.766 440.505 444.835 440.994 444.835 441.547C444.835 442.172 444.766 442.729 444.629 443.217C444.499 443.699 444.32 444.119 444.092 444.477C443.871 444.835 443.607 445.137 443.301 445.385C443.002 445.626 442.68 445.821 442.335 445.971C441.996 446.121 441.644 446.228 441.28 446.293C440.915 446.358 440.557 446.391 440.206 446.391C439.939 446.391 439.652 446.365 439.346 446.313C439.04 446.261 438.734 446.179 438.428 446.068C438.129 445.958 437.839 445.824 437.559 445.668C437.286 445.505 437.042 445.313 436.827 445.092C436.612 444.871 436.439 444.623 436.309 444.35C436.185 444.076 436.124 443.774 436.124 443.442C436.124 443.279 436.146 443.126 436.192 442.983C436.238 442.833 436.306 442.703 436.397 442.592C436.495 442.475 436.615 442.384 436.758 442.318C436.902 442.247 437.074 442.211 437.276 442.211C437.543 442.211 437.79 442.286 438.018 442.436C438.253 442.585 438.448 442.817 438.604 443.129C438.643 443.201 438.702 443.282 438.78 443.373C438.864 443.464 438.972 443.549 439.102 443.627C439.239 443.705 439.402 443.774 439.59 443.832C439.779 443.884 439.997 443.91 440.245 443.91C440.622 443.91 440.932 443.852 441.172 443.734C441.42 443.611 441.615 443.451 441.758 443.256C441.902 443.061 441.999 442.839 442.051 442.592C442.11 442.345 442.139 442.094 442.139 441.84C442.139 441.547 442.09 441.277 441.993 441.029C441.895 440.782 441.762 440.567 441.592 440.385C441.43 440.203 441.241 440.063 441.026 439.965C440.818 439.861 440.603 439.809 440.381 439.809C440.069 439.809 439.815 439.714 439.62 439.526C439.424 439.337 439.327 439.08 439.327 438.754C439.327 438.617 439.353 438.468 439.405 438.305C439.457 438.136 439.542 437.947 439.659 437.738L440.889 435.492ZM459.065 443.149C458.876 443.149 458.713 443.113 458.577 443.041C458.447 442.97 458.333 442.878 458.235 442.768C458.137 442.657 458.053 442.533 457.981 442.397C457.916 442.26 457.861 442.126 457.815 441.996L455.96 436.645H455.706V444.789C455.706 444.998 455.693 445.193 455.667 445.375C455.641 445.557 455.582 445.72 455.491 445.863C455.406 446 455.276 446.111 455.1 446.195C454.931 446.274 454.697 446.313 454.397 446.313C454.059 446.313 453.792 446.274 453.596 446.195C453.401 446.111 453.254 446 453.157 445.863C453.059 445.72 452.997 445.557 452.971 445.375C452.945 445.193 452.932 444.998 452.932 444.789V434.867C452.932 434.587 452.939 434.314 452.952 434.047C452.971 433.78 453.027 433.542 453.118 433.334C453.209 433.126 453.352 432.96 453.547 432.836C453.749 432.706 454.032 432.641 454.397 432.641H455.725C455.947 432.641 456.132 432.651 456.282 432.67C456.438 432.683 456.581 432.738 456.712 432.836C456.842 432.927 456.969 433.077 457.092 433.285C457.223 433.494 457.363 433.79 457.512 434.174C457.669 434.552 457.848 435.037 458.049 435.629C458.251 436.215 458.499 436.938 458.792 437.797L459.045 438.578H459.28L459.592 437.602C459.859 436.781 460.087 436.088 460.276 435.522C460.465 434.955 460.631 434.49 460.774 434.125C460.917 433.754 461.044 433.471 461.155 433.276C461.272 433.074 461.392 432.927 461.516 432.836C461.646 432.738 461.786 432.683 461.936 432.67C462.086 432.651 462.268 432.641 462.483 432.641H463.909C464.273 432.641 464.553 432.706 464.749 432.836C464.95 432.96 465.097 433.126 465.188 433.334C465.279 433.542 465.331 433.78 465.344 434.047C465.364 434.314 465.374 434.587 465.374 434.867V444.789C465.374 444.998 465.361 445.193 465.335 445.375C465.309 445.557 465.247 445.72 465.149 445.863C465.051 446 464.905 446.111 464.71 446.195C464.514 446.274 464.247 446.313 463.909 446.313C463.609 446.313 463.372 446.274 463.196 446.195C463.027 446.111 462.896 446 462.805 445.863C462.721 445.72 462.665 445.557 462.639 445.375C462.613 445.193 462.6 444.998 462.6 444.789V436.645H462.327L460.491 441.996C460.439 442.126 460.38 442.26 460.315 442.397C460.25 442.533 460.169 442.657 460.071 442.768C459.973 442.878 459.859 442.97 459.729 443.041C459.599 443.113 459.443 443.149 459.26 443.149H459.065ZM469.823 440.414H472.928L471.483 435.18H471.268L469.823 440.414ZM475.956 441.371C475.969 441.814 475.985 442.266 476.004 442.729C476.024 443.191 476.034 443.637 476.034 444.067V444.359C476.034 444.607 476.024 444.848 476.004 445.082C475.991 445.31 475.943 445.518 475.858 445.707C475.773 445.889 475.64 446.036 475.458 446.147C475.275 446.257 475.018 446.313 474.686 446.313C474.348 446.313 474.087 446.257 473.905 446.147C473.723 446.036 473.586 445.889 473.495 445.707C473.41 445.525 473.358 445.317 473.338 445.082C473.325 444.848 473.319 444.607 473.319 444.359V442.992H469.413V444.359C469.413 444.607 469.403 444.848 469.383 445.082C469.37 445.317 469.318 445.525 469.227 445.707C469.142 445.889 469.009 446.036 468.827 446.147C468.644 446.257 468.384 446.313 468.045 446.313C467.707 446.313 467.447 446.257 467.264 446.147C467.082 446.036 466.948 445.889 466.864 445.707C466.779 445.518 466.73 445.31 466.717 445.082C466.704 444.848 466.698 444.607 466.698 444.359V444.067C466.698 443.865 466.698 443.65 466.698 443.422C466.704 443.194 466.711 442.963 466.717 442.729C466.724 442.494 466.73 442.263 466.737 442.035C466.743 441.801 466.75 441.58 466.756 441.371C467.082 440.238 467.424 439.093 467.782 437.934C468.14 436.768 468.482 435.616 468.807 434.477C468.872 434.236 468.95 434.005 469.042 433.783C469.133 433.555 469.253 433.36 469.403 433.197C469.553 433.028 469.745 432.895 469.979 432.797C470.213 432.693 470.513 432.641 470.878 432.641H471.854C472.212 432.641 472.508 432.693 472.743 432.797C472.984 432.895 473.179 433.028 473.329 433.197C473.478 433.36 473.596 433.555 473.68 433.783C473.771 434.005 473.853 434.236 473.924 434.477L475.956 441.371ZM481.186 432.563C481.902 432.563 482.517 432.644 483.032 432.807C483.553 432.97 483.989 433.181 484.34 433.442C484.698 433.702 484.985 433.998 485.2 434.33C485.415 434.656 485.577 434.988 485.688 435.326C485.805 435.665 485.88 435.99 485.913 436.303C485.952 436.615 485.971 436.886 485.971 437.113C485.971 437.211 485.962 437.332 485.942 437.475C485.929 437.611 485.874 437.745 485.776 437.875C485.678 438.005 485.522 438.116 485.307 438.207C485.099 438.298 484.799 438.344 484.409 438.344C484.279 438.344 484.116 438.337 483.92 438.324C483.725 438.305 483.536 438.262 483.354 438.197C483.172 438.126 483.016 438.028 482.885 437.904C482.755 437.774 482.69 437.595 482.69 437.367C482.69 437.016 482.667 436.7 482.622 436.42C482.583 436.14 482.508 435.902 482.397 435.707C482.286 435.512 482.133 435.362 481.938 435.258C481.743 435.154 481.492 435.102 481.186 435.102C480.867 435.102 480.62 435.17 480.444 435.307C480.275 435.437 480.151 435.58 480.073 435.736C479.982 435.925 479.93 436.137 479.917 436.371V442.563C479.93 442.849 479.982 443.1 480.073 443.315C480.151 443.503 480.275 443.676 480.444 443.832C480.62 443.988 480.867 444.067 481.186 444.067C481.492 444.067 481.743 444.005 481.938 443.881C482.133 443.751 482.286 443.578 482.397 443.363C482.508 443.149 482.583 442.901 482.622 442.621C482.667 442.341 482.69 442.048 482.69 441.742C482.69 441.645 482.706 441.544 482.739 441.44C482.771 441.335 482.846 441.241 482.963 441.156C483.081 441.065 483.253 440.99 483.481 440.932C483.709 440.873 484.018 440.844 484.409 440.844C484.799 440.844 485.099 440.889 485.307 440.981C485.522 441.065 485.678 441.166 485.776 441.283C485.874 441.394 485.929 441.505 485.942 441.615C485.962 441.72 485.971 441.788 485.971 441.82C485.971 442.537 485.851 443.178 485.61 443.744C485.369 444.304 485.027 444.779 484.585 445.17C484.148 445.561 483.624 445.86 483.012 446.068C482.407 446.27 481.739 446.371 481.01 446.371C480.893 446.371 480.701 446.361 480.434 446.342C480.174 446.322 479.881 446.27 479.555 446.186C479.23 446.101 478.894 445.974 478.549 445.805C478.204 445.636 477.889 445.401 477.602 445.102C477.322 444.796 477.091 444.418 476.909 443.969C476.726 443.513 476.635 442.96 476.635 442.309V436.859C476.635 436.326 476.7 435.854 476.831 435.443C476.961 435.033 477.13 434.679 477.338 434.379C477.553 434.073 477.797 433.819 478.071 433.617C478.344 433.409 478.624 433.236 478.911 433.1C479.575 432.787 480.333 432.608 481.186 432.563ZM499.049 432.641C499.31 432.641 499.573 432.654 499.84 432.68C500.107 432.706 500.348 432.768 500.563 432.865C500.778 432.963 500.954 433.109 501.09 433.305C501.227 433.494 501.295 433.754 501.295 434.086C501.295 434.418 501.227 434.682 501.09 434.877C500.954 435.066 500.778 435.209 500.563 435.307C500.348 435.404 500.107 435.466 499.84 435.492C499.573 435.518 499.31 435.531 499.049 435.531H496.725V438.07H497.956C498.21 438.07 498.47 438.08 498.737 438.1C499.004 438.119 499.245 438.175 499.46 438.266C499.674 438.357 499.85 438.5 499.987 438.695C500.13 438.891 500.202 439.164 500.202 439.516C500.202 439.867 500.133 440.141 499.997 440.336C499.86 440.531 499.684 440.675 499.469 440.766C499.254 440.857 499.014 440.912 498.747 440.932C498.48 440.951 498.216 440.961 497.956 440.961H496.725V444.067C496.725 444.353 496.715 444.63 496.696 444.897C496.683 445.164 496.628 445.404 496.53 445.619C496.439 445.828 496.292 445.997 496.09 446.127C495.889 446.251 495.605 446.313 495.241 446.313C494.87 446.313 494.583 446.251 494.381 446.127C494.18 445.997 494.033 445.828 493.942 445.619C493.851 445.404 493.795 445.164 493.776 444.897C493.763 444.63 493.756 444.353 493.756 444.067V434.887C493.756 434.607 493.763 434.333 493.776 434.067C493.795 433.8 493.851 433.562 493.942 433.354C494.033 433.139 494.18 432.966 494.381 432.836C494.583 432.706 494.87 432.641 495.241 432.641H499.049ZM504.397 440.414H507.503L506.057 435.18H505.842L504.397 440.414ZM510.53 441.371C510.543 441.814 510.559 442.266 510.579 442.729C510.598 443.191 510.608 443.637 510.608 444.067V444.359C510.608 444.607 510.598 444.848 510.579 445.082C510.566 445.31 510.517 445.518 510.432 445.707C510.348 445.889 510.214 446.036 510.032 446.147C509.85 446.257 509.592 446.313 509.26 446.313C508.922 446.313 508.661 446.257 508.479 446.147C508.297 446.036 508.16 445.889 508.069 445.707C507.984 445.525 507.932 445.317 507.913 445.082C507.9 444.848 507.893 444.607 507.893 444.359V442.992H503.987V444.359C503.987 444.607 503.977 444.848 503.958 445.082C503.945 445.317 503.892 445.525 503.801 445.707C503.717 445.889 503.583 446.036 503.401 446.147C503.219 446.257 502.958 446.313 502.62 446.313C502.281 446.313 502.021 446.257 501.838 446.147C501.656 446.036 501.523 445.889 501.438 445.707C501.353 445.518 501.305 445.31 501.292 445.082C501.279 444.848 501.272 444.607 501.272 444.359V444.067C501.272 443.865 501.272 443.65 501.272 443.422C501.279 443.194 501.285 442.963 501.292 442.729C501.298 442.494 501.305 442.263 501.311 442.035C501.318 441.801 501.324 441.58 501.331 441.371C501.656 440.238 501.998 439.093 502.356 437.934C502.714 436.768 503.056 435.616 503.381 434.477C503.447 434.236 503.525 434.005 503.616 433.783C503.707 433.555 503.827 433.36 503.977 433.197C504.127 433.028 504.319 432.895 504.553 432.797C504.788 432.693 505.087 432.641 505.452 432.641H506.428C506.786 432.641 507.083 432.693 507.317 432.797C507.558 432.895 507.753 433.028 507.903 433.197C508.053 433.36 508.17 433.555 508.254 433.783C508.346 434.005 508.427 434.236 508.499 434.477L510.53 441.371ZM511.717 434.867C511.717 434.587 511.724 434.314 511.737 434.047C511.756 433.78 511.812 433.542 511.903 433.334C511.994 433.126 512.137 432.96 512.333 432.836C512.534 432.706 512.818 432.641 513.182 432.641H516.405C517.206 432.68 517.922 432.849 518.553 433.149C518.82 433.279 519.081 433.442 519.335 433.637C519.595 433.826 519.826 434.063 520.028 434.35C520.23 434.63 520.392 434.962 520.516 435.346C520.64 435.73 520.702 436.176 520.702 436.684C520.702 436.788 520.692 436.928 520.672 437.104C520.653 437.273 520.611 437.462 520.545 437.67C520.48 437.872 520.392 438.083 520.282 438.305C520.171 438.526 520.025 438.738 519.842 438.94C519.66 439.141 519.435 439.327 519.169 439.496C518.908 439.665 518.599 439.802 518.241 439.906C518.469 439.998 518.7 440.118 518.934 440.268C519.169 440.411 519.38 440.596 519.569 440.824C519.758 441.052 519.911 441.326 520.028 441.645C520.152 441.964 520.213 442.335 520.213 442.758V444.145C520.213 444.223 520.233 444.288 520.272 444.34C520.311 444.392 520.35 444.438 520.389 444.477C520.545 444.633 520.637 444.77 520.663 444.887C520.689 444.998 520.702 445.089 520.702 445.16C520.702 445.388 520.656 445.58 520.565 445.736C520.474 445.893 520.353 446.02 520.204 446.117C520.06 446.215 519.894 446.283 519.706 446.322C519.523 446.368 519.335 446.391 519.139 446.391C518.924 446.391 518.706 446.358 518.485 446.293C518.264 446.221 518.062 446.121 517.879 445.99C517.697 445.86 517.547 445.697 517.43 445.502C517.32 445.307 517.264 445.082 517.264 444.828V442.758C517.264 442.471 517.245 442.208 517.206 441.967C517.167 441.726 517.092 441.518 516.981 441.342C516.87 441.166 516.717 441.029 516.522 440.932C516.327 440.834 516.073 440.785 515.76 440.785H514.667V444.047C514.667 444.333 514.657 444.613 514.637 444.887C514.624 445.16 514.572 445.404 514.481 445.619C514.39 445.828 514.243 445.997 514.042 446.127C513.84 446.251 513.553 446.313 513.182 446.313C512.818 446.313 512.534 446.251 512.333 446.127C512.137 445.997 511.994 445.828 511.903 445.619C511.812 445.404 511.756 445.16 511.737 444.887C511.724 444.613 511.717 444.333 511.717 444.047V434.867ZM515.995 438.598C516.32 438.585 516.613 438.507 516.874 438.363C516.984 438.305 517.092 438.23 517.196 438.139C517.3 438.048 517.394 437.934 517.479 437.797C517.564 437.66 517.629 437.501 517.674 437.318C517.726 437.136 517.753 436.925 517.753 436.684C517.753 436.469 517.726 436.28 517.674 436.117C517.629 435.948 517.567 435.802 517.489 435.678C517.411 435.554 517.32 435.45 517.215 435.365C517.118 435.281 517.017 435.212 516.913 435.16C516.665 435.037 516.385 434.965 516.073 434.945H514.667V438.598H515.995ZM528.139 443.149C527.95 443.149 527.788 443.113 527.651 443.041C527.521 442.97 527.407 442.878 527.309 442.768C527.212 442.657 527.127 442.533 527.055 442.397C526.99 442.26 526.935 442.126 526.889 441.996L525.034 436.645H524.78V444.789C524.78 444.998 524.767 445.193 524.741 445.375C524.715 445.557 524.656 445.72 524.565 445.863C524.48 446 524.35 446.111 524.174 446.195C524.005 446.274 523.771 446.313 523.471 446.313C523.133 446.313 522.866 446.274 522.67 446.195C522.475 446.111 522.329 446 522.231 445.863C522.133 445.72 522.072 445.557 522.045 445.375C522.019 445.193 522.006 444.998 522.006 444.789V434.867C522.006 434.587 522.013 434.314 522.026 434.047C522.045 433.78 522.101 433.542 522.192 433.334C522.283 433.126 522.426 432.96 522.622 432.836C522.823 432.706 523.107 432.641 523.471 432.641H524.799C525.021 432.641 525.206 432.651 525.356 432.67C525.512 432.683 525.656 432.738 525.786 432.836C525.916 432.927 526.043 433.077 526.167 433.285C526.297 433.494 526.437 433.79 526.587 434.174C526.743 434.552 526.922 435.037 527.124 435.629C527.325 436.215 527.573 436.938 527.866 437.797L528.12 438.578H528.354L528.667 437.602C528.934 436.781 529.161 436.088 529.35 435.522C529.539 434.955 529.705 434.49 529.848 434.125C529.991 433.754 530.118 433.471 530.229 433.276C530.346 433.074 530.467 432.927 530.59 432.836C530.721 432.738 530.861 432.683 531.01 432.67C531.16 432.651 531.342 432.641 531.557 432.641H532.983C533.348 432.641 533.628 432.706 533.823 432.836C534.025 432.96 534.171 433.126 534.262 433.334C534.353 433.542 534.406 433.78 534.419 434.047C534.438 434.314 534.448 434.587 534.448 434.867V444.789C534.448 444.998 534.435 445.193 534.409 445.375C534.383 445.557 534.321 445.72 534.223 445.863C534.126 446 533.979 446.111 533.784 446.195C533.588 446.274 533.322 446.313 532.983 446.313C532.684 446.313 532.446 446.274 532.27 446.195C532.101 446.111 531.971 446 531.879 445.863C531.795 445.72 531.739 445.557 531.713 445.375C531.687 445.193 531.674 444.998 531.674 444.789V436.645H531.401L529.565 441.996C529.513 442.126 529.454 442.26 529.389 442.397C529.324 442.533 529.243 442.657 529.145 442.768C529.047 442.878 528.934 442.97 528.803 443.041C528.673 443.113 528.517 443.149 528.335 443.149H528.139Z" fill="white"/>
<g filter="url(#filter0_dd_2_22)">
<path d="M110.003 601.064C108.083 601.064 106.056 600.872 103.923 600.488C101.79 600.147 99.7843 599.464 97.9069 598.44C96.0723 597.459 94.5576 596.051 93.3629 594.216C92.2109 592.424 91.6349 590.099 91.6349 587.24C91.6349 584.126 92.2749 581.416 93.5549 579.112C94.8349 576.808 96.4563 574.824 98.4189 573.16C100.382 571.454 102.366 569.918 104.371 568.552C103.347 567.358 102.216 566.163 100.979 564.968C99.7416 563.774 98.3763 562.643 96.8829 561.576C96.6269 561.363 96.3709 560.979 96.1149 560.424C95.8589 559.87 95.6456 559.294 95.4749 558.696C95.3043 558.099 95.2189 557.651 95.2189 557.352C95.2189 556.712 95.6243 555.944 96.4349 555.048C97.2456 554.152 98.3336 553.299 99.6989 552.488C101.064 551.635 102.622 550.931 104.371 550.376C106.12 549.822 107.934 549.544 109.811 549.544C112.84 549.544 115.187 550.291 116.851 551.784C118.515 553.278 119.347 555.027 119.347 557.032C119.347 559.464 118.664 561.576 117.299 563.368C115.976 565.16 114.355 566.824 112.435 568.36C114.056 569.171 115.87 569.811 117.875 570.28C119.88 570.707 122.462 570.92 125.619 570.92C126.515 570.92 127.155 571.176 127.539 571.688C127.966 572.158 128.179 572.734 128.179 573.416C128.179 574.099 127.88 574.739 127.283 575.336C126.686 575.891 125.918 576.168 124.979 576.168C122.035 576.168 119.518 575.976 117.427 575.592C115.379 575.208 113.608 574.696 112.115 574.056C110.622 573.374 109.235 572.584 107.955 571.688C106.078 573.054 104.286 574.44 102.579 575.848C100.915 577.256 99.5496 578.814 98.4829 580.52C97.4163 582.227 96.8829 584.19 96.8829 586.408C96.8829 588.371 97.3523 589.971 98.2909 591.208C99.2296 592.446 100.403 593.384 101.811 594.024C103.219 594.707 104.67 595.176 106.163 595.432C107.656 595.688 108.936 595.816 110.003 595.816C112.222 595.816 114.547 595.56 116.979 595.048C119.411 594.579 121.928 593.811 124.531 592.744L126.195 596.84C124.958 597.566 123.443 598.248 121.651 598.888C119.859 599.571 117.96 600.104 115.955 600.488C113.95 600.872 111.966 601.064 110.003 601.064ZM99.8269 557.672C101.363 558.952 102.792 560.211 104.115 561.448C105.48 562.643 106.952 564.072 108.531 565.736C110.195 564.584 111.56 563.432 112.627 562.28C113.736 561.128 114.291 559.848 114.291 558.44C114.291 557.587 113.886 556.755 113.075 555.944C112.264 555.134 110.856 554.728 108.851 554.728C107.4 554.728 105.779 555.006 103.987 555.56C102.238 556.115 100.851 556.819 99.8269 557.672ZM124.995 576.168L125.635 570.92C128.152 570.92 130.115 570.835 131.523 570.664C132.931 570.451 133.934 569.96 134.531 569.192C135.128 568.382 135.427 567.123 135.427 565.416C135.427 563.795 135.043 561.768 134.275 559.336C133.55 556.862 132.718 554.408 131.779 551.976L136.963 550.056C137.518 551.422 138.03 552.979 138.499 554.728C139.011 556.478 139.438 558.206 139.779 559.912C140.12 561.619 140.291 563.112 140.291 564.392C140.291 568.659 139.096 571.688 136.707 573.48C134.318 575.272 130.414 576.168 124.995 576.168ZM136.835 588.264C135.939 588.264 135.171 587.944 134.531 587.304C133.934 586.707 133.635 585.982 133.635 585.128C133.635 584.275 133.934 583.528 134.531 582.888C135.171 582.248 135.939 581.928 136.835 581.928C137.688 581.928 138.414 582.248 139.011 582.888C139.651 583.528 139.971 584.275 139.971 585.128C139.971 585.982 139.651 586.707 139.011 587.304C138.414 587.944 137.688 588.264 136.835 588.264ZM128.067 588.264C127.171 588.264 126.403 587.944 125.763 587.304C125.166 586.707 124.867 585.982 124.867 585.128C124.867 584.275 125.166 583.528 125.763 582.888C126.403 582.248 127.171 581.928 128.067 581.928C128.92 581.928 129.646 582.248 130.243 582.888C130.883 583.528 131.203 584.275 131.203 585.128C131.203 585.982 130.883 586.707 130.243 587.304C129.646 587.944 128.92 588.264 128.067 588.264ZM144.376 590.568L142.52 585.704C146.829 584.339 150.136 582.696 152.44 580.776C154.787 578.899 156.387 576.936 157.24 574.888C158.136 572.84 158.584 570.878 158.584 569C158.584 567.806 158.456 566.654 158.2 565.544C157.944 564.435 157.496 563.176 156.856 561.768C156.216 560.36 155.32 558.611 154.168 556.52L158.84 554.152C160.461 556.926 161.613 559.55 162.296 562.024C163.021 564.499 163.384 566.675 163.384 568.552C163.384 571.24 162.936 573.672 162.04 575.848C161.187 578.024 160.035 579.944 158.584 581.608C157.176 583.315 155.619 584.766 153.912 585.96C152.248 587.155 150.563 588.136 148.856 588.904C147.192 589.672 145.699 590.227 144.376 590.568ZM155.448 546.792C154.552 546.792 153.784 546.494 153.144 545.896C152.547 545.256 152.248 544.51 152.248 543.656C152.248 542.803 152.547 542.056 153.144 541.416C153.784 540.776 154.552 540.456 155.448 540.456C156.301 540.456 157.027 540.776 157.624 541.416C158.264 542.056 158.584 542.803 158.584 543.656C158.584 544.51 158.264 545.256 157.624 545.896C157.027 546.494 156.301 546.792 155.448 546.792ZM171.332 590.568L170.18 585.32C172.825 584.979 175.236 584.467 177.412 583.784C179.631 583.144 181.529 582.227 183.108 581.032C184.687 579.838 185.86 578.216 186.628 576.168H182.532C180.612 576.168 178.82 575.891 177.156 575.336C175.535 574.782 174.212 573.928 173.188 572.776C172.207 571.582 171.716 570.024 171.716 568.104C171.716 565.715 172.185 563.475 173.124 561.384C174.063 559.294 175.343 557.587 176.964 556.264C178.628 554.942 180.463 554.28 182.468 554.28C185.412 554.28 187.844 555.582 189.764 558.184C191.727 560.744 192.708 564.691 192.708 570.024C192.708 570.323 192.708 570.622 192.708 570.92H198.468C199.364 570.92 200.004 571.176 200.388 571.688C200.815 572.158 201.028 572.734 201.028 573.416C201.028 574.099 200.729 574.739 200.132 575.336C199.535 575.891 198.767 576.168 197.828 576.168H191.94C189.764 584.446 182.895 589.246 171.332 590.568ZM184.964 570.92H187.652C187.695 570.494 187.716 570.067 187.716 569.64C187.716 566.739 187.183 564.328 186.116 562.408C185.049 560.488 183.663 559.528 181.956 559.528C181.06 559.528 180.228 559.87 179.46 560.552C178.692 561.235 178.052 562.152 177.54 563.304C177.071 564.456 176.836 565.715 176.836 567.08C176.836 568.574 177.497 569.598 178.82 570.152C180.185 570.664 182.233 570.92 184.964 570.92ZM214.895 551.144C213.999 551.144 213.231 550.846 212.591 550.248C211.994 549.608 211.695 548.862 211.695 548.008C211.695 547.155 211.994 546.408 212.591 545.768C213.231 545.128 213.999 544.808 214.895 544.808C215.749 544.808 216.474 545.128 217.071 545.768C217.711 546.408 218.031 547.155 218.031 548.008C218.031 548.862 217.711 549.608 217.071 550.248C216.474 550.846 215.749 551.144 214.895 551.144ZM206.127 551.144C205.231 551.144 204.463 550.846 203.823 550.248C203.226 549.608 202.927 548.862 202.927 548.008C202.927 547.155 203.226 546.408 203.823 545.768C204.463 545.128 205.231 544.808 206.127 544.808C206.981 544.808 207.706 545.128 208.303 545.768C208.943 546.408 209.263 547.155 209.263 548.008C209.263 548.862 208.943 549.608 208.303 550.248C207.706 550.846 206.981 551.144 206.127 551.144ZM197.807 576.168L198.447 570.92C200.581 570.92 202.245 570.771 203.439 570.472C204.634 570.131 205.53 569.512 206.127 568.616C206.767 567.678 207.279 566.334 207.663 564.584C208.047 562.835 208.517 560.552 209.071 557.736L214.063 558.696C213.807 559.848 213.509 561.171 213.167 562.664C212.869 564.158 212.719 565.416 212.719 566.44C212.719 567.08 212.762 567.678 212.847 568.232C212.933 568.787 213.253 569.256 213.807 569.64C214.362 570.024 215.301 570.344 216.623 570.6C217.946 570.814 219.845 570.92 222.319 570.92C223.215 570.92 223.855 571.176 224.239 571.688C224.666 572.158 224.879 572.734 224.879 573.416C224.879 574.099 224.581 574.739 223.983 575.336C223.386 575.891 222.618 576.168 221.679 576.168C218.906 576.168 216.73 576.019 215.151 575.72C213.615 575.379 212.463 574.91 211.695 574.312C210.97 573.672 210.437 572.883 210.095 571.944C208.858 573.694 207.322 574.846 205.487 575.4C203.695 575.912 201.135 576.168 197.807 576.168ZM221.682 576.168L222.258 570.92C224.69 570.92 226.397 570.686 227.378 570.216C228.36 569.747 228.914 568.915 229.042 567.72C229.213 566.526 229.256 564.862 229.17 562.728L227.954 530.152H233.138L234.418 562.152C234.546 565.182 234.333 567.742 233.778 569.832C233.266 571.923 232.072 573.502 230.194 574.568C228.36 575.635 225.522 576.168 221.682 576.168ZM244.195 575.848L242.915 530.152H248.099L249.379 575.848H244.195ZM282.207 590.568L281.055 585.32C283.786 584.979 286.26 584.467 288.479 583.784C290.698 583.102 292.596 582.12 294.175 580.84C295.754 579.56 296.927 577.854 297.695 575.72C296.927 575.934 296.116 576.083 295.263 576.168C294.41 576.296 293.578 576.36 292.767 576.36C289.524 576.36 287.007 575.699 285.215 574.376C283.466 573.011 282.591 570.963 282.591 568.232C282.591 566.611 282.847 564.99 283.359 563.368C283.871 561.704 284.596 560.19 285.535 558.824C286.474 557.459 287.604 556.371 288.927 555.56C290.25 554.707 291.722 554.28 293.343 554.28C295.647 554.28 297.546 555.027 299.039 556.52C300.575 558.014 301.706 559.976 302.431 562.408C303.199 564.798 303.583 567.336 303.583 570.024C303.583 575.998 301.77 580.712 298.143 584.168C294.559 587.624 289.247 589.758 282.207 590.568ZM287.647 566.952C287.647 568.275 288.074 569.342 288.927 570.152C289.78 570.92 291.252 571.304 293.343 571.304C295.178 571.304 296.927 571.048 298.591 570.536C298.591 570.28 298.591 569.982 298.591 569.64C298.591 567.848 298.356 566.184 297.887 564.648C297.418 563.112 296.756 561.875 295.903 560.936C295.05 559.998 294.026 559.528 292.831 559.528C291.85 559.528 290.954 559.912 290.143 560.68C289.375 561.406 288.756 562.344 288.287 563.496C287.86 564.648 287.647 565.8 287.647 566.952ZM344.985 575.848C341.871 575.848 339.247 575.038 337.113 573.416C335.023 571.752 333.977 569.192 333.977 565.736C333.977 564.03 334.575 561.918 335.769 559.4C337.007 556.84 339.14 554.152 342.169 551.336L340.313 549.672L343.641 545.704C345.86 547.454 347.908 549.331 349.785 551.336C351.663 553.342 353.177 555.475 354.329 557.736C355.481 559.998 356.057 562.387 356.057 564.904C356.057 565.886 355.887 566.995 355.545 568.232C355.204 569.47 354.628 570.686 353.817 571.88C353.007 573.032 351.876 573.992 350.425 574.76C348.975 575.486 347.161 575.848 344.985 575.848ZM344.985 570.6C347.119 570.6 348.74 570.067 349.849 569C350.959 567.891 351.513 566.44 351.513 564.648C351.513 563.667 351.364 562.643 351.065 561.576C350.767 560.51 350.169 559.358 349.273 558.12C348.377 556.84 347.033 555.432 345.241 553.896C343.279 555.816 341.743 557.8 340.633 559.848C339.567 561.896 339.033 563.688 339.033 565.224C339.033 567.016 339.588 568.36 340.697 569.256C341.849 570.152 343.279 570.6 344.985 570.6ZM349.849 540.008C348.953 540.008 348.185 539.71 347.545 539.112C346.948 538.472 346.649 537.726 346.649 536.872C346.649 536.019 346.948 535.272 347.545 534.632C348.185 533.992 348.953 533.672 349.849 533.672C350.703 533.672 351.428 533.992 352.025 534.632C352.665 535.272 352.985 536.019 352.985 536.872C352.985 537.726 352.665 538.472 352.025 539.112C351.428 539.71 350.703 540.008 349.849 540.008ZM341.081 540.008C340.185 540.008 339.417 539.71 338.777 539.112C338.18 538.472 337.881 537.726 337.881 536.872C337.881 536.019 338.18 535.272 338.777 534.632C339.417 533.992 340.185 533.672 341.081 533.672C341.935 533.672 342.66 533.992 343.257 534.632C343.897 535.272 344.217 536.019 344.217 536.872C344.217 537.726 343.897 538.472 343.257 539.112C342.66 539.71 341.935 540.008 341.081 540.008ZM355.688 590.568L353.832 585.704C358.142 584.339 361.448 582.696 363.752 580.776C366.099 578.899 367.699 576.936 368.552 574.888C369.448 572.84 369.896 570.878 369.896 569C369.896 567.806 369.768 566.654 369.512 565.544C369.256 564.435 368.808 563.176 368.168 561.768C367.528 560.36 366.632 558.611 365.48 556.52L370.152 554.152C371.774 556.926 372.926 559.55 373.608 562.024C374.334 564.499 374.696 566.675 374.696 568.552C374.696 571.24 374.248 573.672 373.352 575.848C372.499 578.024 371.347 579.944 369.896 581.608C368.488 583.315 366.931 584.766 365.224 585.96C363.56 587.155 361.875 588.136 360.168 588.904C358.504 589.672 357.011 590.227 355.688 590.568ZM397.556 576.168C394.143 576.168 391.519 575.784 389.684 575.016C387.892 574.248 386.655 573.054 385.972 571.432C385.29 569.811 384.906 567.72 384.82 565.16L383.54 530.152H388.788L390.068 563.112C390.154 565.203 390.346 566.824 390.644 567.976C390.986 569.086 391.711 569.854 392.82 570.28C393.972 570.707 395.764 570.92 398.196 570.92C399.092 570.92 399.732 571.176 400.116 571.688C400.543 572.158 400.756 572.734 400.756 573.416C400.756 574.099 400.458 574.739 399.86 575.336C399.263 575.891 398.495 576.168 397.556 576.168ZM397.557 576.168L398.133 570.92C402.571 570.92 406.837 570.259 410.933 568.936C415.072 567.614 418.848 565.779 422.261 563.432C420.597 561.939 418.549 560.766 416.117 559.912C413.728 559.016 411.083 558.568 408.181 558.568C407.115 558.568 406.176 558.632 405.365 558.76C404.555 558.846 403.573 559.016 402.421 559.272L401.397 554.408C403.787 553.683 406.048 553.32 408.181 553.32C410.4 553.32 412.405 553.598 414.197 554.152C415.989 554.664 417.611 555.304 419.061 556.072C420.555 556.84 421.941 557.608 423.221 558.376C424.544 559.144 425.824 559.806 427.061 560.36C428.299 560.872 429.579 561.128 430.901 561.128H432.245L432.693 565.736C431.371 565.736 430.091 565.886 428.853 566.184C429.664 568.104 430.816 569.384 432.309 570.024C433.803 570.622 436.021 570.92 438.965 570.92C439.861 570.92 440.501 571.176 440.885 571.688C441.312 572.158 441.525 572.734 441.525 573.416C441.525 574.099 441.227 574.739 440.629 575.336C440.032 575.891 439.264 576.168 438.325 576.168C436.021 576.168 433.952 575.976 432.117 575.592C430.325 575.166 428.789 574.355 427.509 573.16C426.229 571.923 425.291 570.088 424.693 567.656C423.072 568.424 421.408 569.299 419.701 570.28C418.037 571.219 416.181 572.136 414.133 573.032C412.085 573.928 409.717 574.675 407.029 575.272C404.341 575.87 401.184 576.168 397.557 576.168ZM414.261 587.752C413.365 587.752 412.597 587.432 411.957 586.792C411.36 586.195 411.061 585.47 411.061 584.616C411.061 583.763 411.36 583.016 411.957 582.376C412.597 581.736 413.365 581.416 414.261 581.416C415.115 581.416 415.84 581.736 416.437 582.376C417.077 583.016 417.397 583.763 417.397 584.616C417.397 585.47 417.077 586.195 416.437 586.792C415.84 587.432 415.115 587.752 414.261 587.752ZM455.395 551.144C454.499 551.144 453.731 550.846 453.091 550.248C452.494 549.608 452.195 548.862 452.195 548.008C452.195 547.155 452.494 546.408 453.091 545.768C453.731 545.128 454.499 544.808 455.395 544.808C456.249 544.808 456.974 545.128 457.571 545.768C458.211 546.408 458.531 547.155 458.531 548.008C458.531 548.862 458.211 549.608 457.571 550.248C456.974 550.846 456.249 551.144 455.395 551.144ZM446.627 551.144C445.731 551.144 444.963 550.846 444.323 550.248C443.726 549.608 443.427 548.862 443.427 548.008C443.427 547.155 443.726 546.408 444.323 545.768C444.963 545.128 445.731 544.808 446.627 544.808C447.481 544.808 448.206 545.128 448.803 545.768C449.443 546.408 449.763 547.155 449.763 548.008C449.763 548.862 449.443 549.608 448.803 550.248C448.206 550.846 447.481 551.144 446.627 551.144ZM438.307 576.168L438.947 570.92C441.081 570.92 442.745 570.771 443.939 570.472C445.134 570.131 446.03 569.512 446.627 568.616C447.267 567.678 447.779 566.334 448.163 564.584C448.547 562.835 449.017 560.552 449.571 557.736L454.563 558.696C454.307 559.848 454.009 561.171 453.667 562.664C453.369 564.158 453.219 565.416 453.219 566.44C453.219 567.08 453.262 567.678 453.347 568.232C453.433 568.787 453.753 569.256 454.307 569.64C454.862 570.024 455.801 570.344 457.123 570.6C458.446 570.814 460.345 570.92 462.819 570.92C463.715 570.92 464.355 571.176 464.739 571.688C465.166 572.158 465.379 572.734 465.379 573.416C465.379 574.099 465.081 574.739 464.483 575.336C463.886 575.891 463.118 576.168 462.179 576.168C459.406 576.168 457.23 576.019 455.651 575.72C454.115 575.379 452.963 574.91 452.195 574.312C451.47 573.672 450.937 572.883 450.595 571.944C449.358 573.694 447.822 574.846 445.987 575.4C444.195 575.912 441.635 576.168 438.307 576.168ZM462.182 576.168L462.758 570.92C465.19 570.92 466.897 570.686 467.878 570.216C468.86 569.747 469.414 568.915 469.542 567.72C469.713 566.526 469.756 564.862 469.67 562.728L468.582 530.152H473.894L474.918 562.6C475.004 564.776 475.345 566.483 475.942 567.72C476.582 568.915 477.436 569.747 478.502 570.216C479.569 570.686 480.742 570.92 482.022 570.92C482.918 570.92 483.558 571.176 483.942 571.688C484.369 572.158 484.582 572.734 484.582 573.416C484.582 574.099 484.284 574.739 483.686 575.336C483.089 575.891 482.321 576.168 481.382 576.168C479.206 576.168 477.478 575.763 476.198 574.952C474.918 574.099 474.001 573.075 473.446 571.88C472.593 573.288 471.27 574.355 469.478 575.08C467.729 575.806 465.297 576.168 462.182 576.168ZM481.37 576.168L481.946 570.92C484.378 570.92 486.085 570.686 487.066 570.216C488.047 569.747 488.602 568.915 488.73 567.72C488.901 566.526 488.943 564.862 488.858 562.728L487.642 530.152H492.826L494.106 562.152C494.234 565.182 494.021 567.742 493.466 569.832C492.954 571.923 491.759 573.502 489.882 574.568C488.047 575.635 485.21 576.168 481.37 576.168Z" fill="white"/>
</g>
<defs>
<filter id="filter0_dd_2_22" x="91.6349" y="530.152" width="408.663" height="72.912" filterUnits="userSpaceOnUse" color-interpolation-filters="sRGB">
<feFlood flood-opacity="0" result="BackgroundImageFix"/>
<feColorMatrix in="SourceAlpha" type="matrix" values="0 0 0 0 0 0 0 0 0 0 0 0 0 0 0 0 0 0 127 0" result="hardAlpha"/>
<feOffset dx="6" dy="2"/>
<feComposite in2="hardAlpha" operator="out"/>
<feColorMatrix type="matrix" values="0 0 0 0 0.423077 0 0 0 0 0.423077 0 0 0 0 0.423077 0 0 0 0.97 0"/>
<feBlend mode="normal" in2="BackgroundImageFix" result="effect1_dropShadow_2_22"/>
<feColorMatrix in="SourceAlpha" type="matrix" values="0 0 0 0 0 0 0 0 0 0 0 0 0 0 0 0 0 0 127 0" result="hardAlpha"/>
<feOffset dx="4" dy="1"/>
<feComposite in2="hardAlpha" operator="out"/>
<feColorMatrix type="matrix" values="0 0 0 0 0.476923 0 0 0 0 0.476923 0 0 0 0 0.476923 0 0 0 1 0"/>
<feBlend mode="normal" in2="effect1_dropShadow_2_22" result="effect2_dropShadow_2_22"/>
<feBlend mode="normal" in="SourceGraphic" in2="effect2_dropShadow_2_22" result="shape"/>
</filter>
</defs>
</svg>
