<svg width="1024" height="857" viewBox="0 0 1024 857" fill="none" xmlns="http://www.w3.org/2000/svg">
<path d="M2.43063 691.353C-25.0985 707.204 188.044 714.294 296.492 710.123L315.262 686.14C237.054 685.444 29.9598 675.503 2.43063 691.353Z" fill="#97B14D"/>
<path d="M997.233 695.524C1024.76 679.674 788.679 680.015 680.231 684.186L661.461 708.17C739.669 708.865 969.704 711.375 997.233 695.524Z" fill="#97B14D"/>
<path d="M546.411 139.48C457.984 192.035 465.77 273.302 480.717 307.366C553.293 190.576 684.057 203.784 740.366 224.987C597.715 214.142 520.342 285.815 499.487 323.007C549.54 338.649 599.592 336.563 652.774 314.665C756.616 271.907 795.981 195.442 800.847 166.592C757.051 162.421 728.896 115.496 652.774 110.282C616.243 107.78 573.523 121.753 546.411 139.48Z" fill="#E48F31"/>
<path fill-rule="evenodd" clip-rule="evenodd" d="M442.33 163.423C447.33 175.993 452.512 189.022 456.183 206.217C452.999 211.844 450.305 217.373 448.391 222.902C335.772 121.961 394.514 32.7698 437.963 0.791565C439.464 3.08703 440.845 5.15077 442.134 7.02393C432.402 30.6681 423.473 83.8858 428.578 117.582C431.336 135.78 436.718 149.313 442.33 163.423Z" fill="#252624"/>
<path fill-rule="evenodd" clip-rule="evenodd" d="M442.33 163.423C447.33 175.993 452.512 189.022 456.183 206.217C452.999 211.844 450.305 217.373 448.391 222.902C335.772 121.961 394.514 32.7698 437.963 0.791565C439.464 3.08703 440.845 5.15077 442.134 7.02393C432.402 30.6681 423.473 83.8858 428.578 117.582C431.336 135.78 436.718 149.313 442.33 163.423Z" fill="#97B14D"/>
<path fill-rule="evenodd" clip-rule="evenodd" d="M456.183 206.217C452.512 189.022 447.33 175.993 442.33 163.423C436.718 149.313 431.336 135.78 428.578 117.582C423.473 83.8858 432.402 30.6681 442.134 7.02393C450.559 19.2678 455.037 23.3688 463.167 30.8153C468.484 35.685 475.364 41.9856 485.931 52.9301C500.529 66.4861 504.385 103.089 498.444 130.095C491.531 151.409 479.845 169.222 469.187 185.469C464.487 192.633 459.985 199.496 456.183 206.217Z" fill="#252624"/>
<path fill-rule="evenodd" clip-rule="evenodd" d="M456.183 206.217C452.512 189.022 447.33 175.993 442.33 163.423C436.718 149.313 431.336 135.78 428.578 117.582C423.473 83.8858 432.402 30.6681 442.134 7.02393C450.559 19.2678 455.037 23.3688 463.167 30.8153C468.484 35.685 475.364 41.9856 485.931 52.9301C500.529 66.4861 504.385 103.089 498.444 130.095C491.531 151.409 479.845 169.222 469.187 185.469C464.487 192.633 459.985 199.496 456.183 206.217Z" fill="#D0E593"/>
<path d="M6.25664 288.596C-21.2725 304.446 188.741 300.067 297.189 295.895L275.291 270.869C197.084 270.174 33.7858 272.746 6.25664 288.596Z" fill="#97B14D"/>
<path d="M1020.87 288.697C1048.4 304.547 838.387 300.168 729.939 295.997L751.837 270.97C830.045 270.275 993.343 272.847 1020.87 288.697Z" fill="#97B14D"/>
<path d="M291.976 263.57C263.821 237.5 233.233 200.656 213.768 185.362C217.939 175.977 240.88 156.164 267.992 147.822C295.104 139.48 369.141 151.993 407.723 198.918C438.589 236.458 444.22 288.248 443.177 309.451C423.712 262.527 357.879 170.972 250.265 180.148C283.981 177.715 367.264 201.421 430.664 315.708C396.253 319.879 319.796 289.329 291.976 263.57Z" fill="#97B14D"/>
<path d="M107.953 604.744L107.761 598.152H125.745C125.958 598.451 126.15 598.899 126.321 599.496C126.492 600.051 126.577 600.648 126.577 601.288C126.577 602.397 126.321 603.251 125.809 603.848C125.297 604.445 124.593 604.744 123.697 604.744H107.953ZM113.649 598.152L113.777 604.744H95.7929C95.5796 604.403 95.3876 603.955 95.2169 603.4C95.0462 602.845 94.9609 602.227 94.9609 601.544C94.9609 600.392 95.2169 599.539 95.7289 598.984C96.2409 598.429 96.9449 598.152 97.8409 598.152H113.649ZM106.673 603.016H114.737V636.872C114.396 637 113.862 637.107 113.137 637.192C112.454 637.32 111.75 637.384 111.025 637.384C109.446 637.384 108.316 637.107 107.633 636.552C106.993 635.955 106.673 634.973 106.673 633.608V603.016ZM142.325 616.968H147.637C150.154 616.968 152.16 616.413 153.653 615.304C155.146 614.195 155.893 612.552 155.893 610.376C155.893 608.243 155.146 606.621 153.653 605.512C152.16 604.403 149.962 603.848 147.061 603.848C146.208 603.848 145.376 603.891 144.565 603.976C143.754 604.019 143.008 604.104 142.325 604.232V616.968ZM148.213 623.304H134.261V601.352C134.261 600.584 134.474 599.987 134.901 599.56C135.37 599.133 135.968 598.792 136.693 598.536C138.058 598.109 139.658 597.789 141.493 597.576C143.37 597.363 145.269 597.256 147.189 597.256C152.821 597.256 157.024 598.429 159.797 600.776C162.613 603.08 164.021 606.259 164.021 610.312C164.021 612.872 163.36 615.133 162.037 617.096C160.757 619.059 158.944 620.595 156.597 621.704C154.25 622.771 151.456 623.304 148.213 623.304ZM147.125 621.256L154.037 619.272C155.104 620.68 156.192 622.109 157.301 623.56C158.453 624.968 159.541 626.355 160.565 627.72C161.632 629.043 162.57 630.259 163.381 631.368C164.234 632.477 164.896 633.395 165.365 634.12C165.066 635.187 164.49 636.019 163.637 636.616C162.826 637.213 161.93 637.512 160.949 637.512C159.669 637.512 158.666 637.235 157.941 636.68C157.258 636.083 156.597 635.293 155.957 634.312L147.125 621.256ZM134.261 620.488H142.389V636.872C142.048 637 141.514 637.107 140.789 637.192C140.106 637.32 139.381 637.384 138.613 637.384C137.077 637.384 135.968 637.107 135.285 636.552C134.602 635.955 134.261 634.973 134.261 633.608V620.488ZM189.201 604.744H188.881C188.327 606.28 187.708 608.029 187.025 609.992C186.385 611.955 185.703 614.003 184.977 616.136C184.252 618.227 183.569 620.253 182.929 622.216L182.033 626.184C181.777 626.995 181.5 627.891 181.201 628.872C180.945 629.853 180.647 630.856 180.305 631.88C180.007 632.861 179.708 633.8 179.409 634.696C179.153 635.592 178.919 636.381 178.705 637.064C178.279 637.192 177.809 637.299 177.297 637.384C176.828 637.512 176.252 637.576 175.569 637.576C174.204 637.576 173.116 637.32 172.305 636.808C171.537 636.253 171.153 635.443 171.153 634.376C171.153 633.907 171.217 633.416 171.345 632.904C171.516 632.392 171.687 631.816 171.857 631.176C172.284 629.768 172.86 628.019 173.585 625.928C174.311 623.795 175.1 621.491 175.953 619.016C176.807 616.541 177.681 614.045 178.577 611.528C179.516 609.011 180.391 606.664 181.201 604.488C182.012 602.269 182.716 600.413 183.313 598.92C183.825 598.621 184.615 598.344 185.681 598.088C186.748 597.832 187.836 597.704 188.945 597.704C190.396 597.704 191.719 597.917 192.913 598.344C194.151 598.771 194.919 599.453 195.217 600.392C196.113 602.739 197.073 605.427 198.097 608.456C199.121 611.485 200.167 614.643 201.233 617.928C202.3 621.213 203.324 624.413 204.305 627.528C205.287 630.643 206.161 633.459 206.929 635.976C206.503 636.445 205.905 636.829 205.137 637.128C204.412 637.427 203.559 637.576 202.577 637.576C201.169 637.576 200.145 637.32 199.505 636.808C198.908 636.253 198.439 635.421 198.097 634.312L195.473 625.928L194.641 621.832C193.959 619.656 193.276 617.523 192.593 615.432C191.953 613.299 191.335 611.315 190.737 609.48C190.14 607.645 189.628 606.067 189.201 604.744ZM178.449 627.72L181.457 621.384H197.457L198.673 627.72H178.449ZM240.681 617.416C240.681 614.259 240.105 611.699 238.953 609.736C237.844 607.731 236.308 606.259 234.345 605.32C232.425 604.339 230.228 603.848 227.753 603.848C226.815 603.848 225.919 603.891 225.065 603.976C224.255 604.019 223.465 604.104 222.697 604.232V630.792C223.465 630.963 224.319 631.091 225.257 631.176C226.196 631.219 227.135 631.24 228.073 631.24C232.041 631.24 235.135 630.088 237.353 627.784C239.572 625.437 240.681 621.981 240.681 617.416ZM249.001 617.288C249.001 621.896 248.127 625.736 246.377 628.808C244.628 631.837 242.196 634.099 239.081 635.592C235.967 637.085 232.297 637.832 228.073 637.832C226.665 637.832 225.001 637.747 223.081 637.576C221.161 637.448 219.391 637.107 217.769 636.552C215.679 635.827 214.633 634.568 214.633 632.776V601.352C214.633 600.541 214.847 599.923 215.273 599.496C215.743 599.069 216.34 598.728 217.065 598.472C218.644 598.003 220.351 597.683 222.185 597.512C224.063 597.341 225.812 597.256 227.433 597.256C231.743 597.256 235.497 598.003 238.697 599.496C241.94 600.947 244.457 603.144 246.249 606.088C248.084 609.032 249.001 612.765 249.001 617.288ZM258.165 611.336H266.229V636.872C265.888 637 265.376 637.107 264.693 637.192C264.01 637.32 263.285 637.384 262.517 637.384C260.981 637.384 259.872 637.107 259.189 636.552C258.506 635.955 258.165 634.973 258.165 633.608V611.336ZM266.229 620.68H258.165V598.152C258.506 598.067 259.04 597.96 259.765 597.832C260.49 597.704 261.216 597.64 261.941 597.64C263.434 597.64 264.522 597.917 265.205 598.472C265.888 598.984 266.229 599.965 266.229 601.416V620.68ZM277.506 606.792L284.738 606.6C284.909 608.221 285.037 609.928 285.122 611.72C285.25 613.512 285.314 615.283 285.314 617.032C285.357 618.781 285.378 620.467 285.378 622.088V636.936C285.079 637.021 284.567 637.107 283.842 637.192C283.159 637.32 282.477 637.384 281.794 637.384C280.258 637.384 279.149 637.128 278.466 636.616C277.826 636.061 277.506 635.101 277.506 633.736V606.792ZM310.466 628.232L303.17 628.424C302.829 625.139 302.637 621.939 302.594 618.824C302.551 615.667 302.53 612.616 302.53 609.672V598.152C302.914 598.067 303.426 597.96 304.066 597.832C304.749 597.704 305.474 597.64 306.242 597.64C307.735 597.64 308.802 597.917 309.442 598.472C310.125 599.027 310.466 599.965 310.466 601.288V628.232ZM310.466 625.608V621.576V635.976C309.954 636.403 309.271 636.744 308.418 637C307.565 637.299 306.583 637.448 305.474 637.448C304.151 637.448 302.957 637.235 301.89 636.808C300.866 636.381 299.991 635.443 299.266 633.992L289.858 617.16C289.346 616.136 288.791 615.069 288.194 613.96C287.639 612.851 287.106 611.763 286.594 610.696C286.082 609.629 285.613 608.648 285.186 607.752L277.506 609.544V599.496C277.975 598.899 278.658 598.451 279.554 598.152C280.493 597.853 281.495 597.704 282.562 597.704C283.842 597.704 285.015 597.917 286.082 598.344C287.149 598.771 288.045 599.688 288.77 601.096L298.178 617.928C298.733 618.952 299.287 620.019 299.842 621.128C300.439 622.237 300.973 623.325 301.442 624.392C301.954 625.459 302.402 626.44 302.786 627.336L310.466 625.608ZM354.494 618.12V631.688C354.494 632.712 354.26 633.523 353.79 634.12C353.364 634.717 352.66 635.272 351.678 635.784C350.569 636.381 348.969 636.893 346.878 637.32C344.83 637.747 342.761 637.96 340.67 637.96C336.617 637.96 332.99 637.256 329.79 635.848C326.633 634.397 324.137 632.179 322.302 629.192C320.468 626.163 319.55 622.301 319.55 617.608C319.55 613.085 320.489 609.309 322.366 606.28C324.244 603.251 326.74 600.968 329.854 599.432C333.012 597.896 336.489 597.128 340.286 597.128C342.846 597.128 345.065 597.405 346.942 597.96C348.862 598.515 350.334 599.24 351.358 600.136C352.425 601.032 352.958 602.013 352.958 603.08C352.958 603.891 352.724 604.616 352.254 605.256C351.828 605.896 351.337 606.387 350.782 606.728C349.63 606.003 348.265 605.341 346.686 604.744C345.108 604.104 343.166 603.784 340.862 603.784C338.388 603.784 336.148 604.317 334.142 605.384C332.18 606.451 330.644 608.029 329.534 610.12C328.425 612.168 327.87 614.664 327.87 617.608C327.87 620.765 328.425 623.368 329.534 625.416C330.644 627.421 332.18 628.915 334.142 629.896C336.105 630.877 338.324 631.368 340.798 631.368C342.036 631.368 343.166 631.261 344.19 631.048C345.257 630.835 346.089 630.579 346.686 630.28V621.192H338.366C338.196 620.893 338.004 620.467 337.79 619.912C337.62 619.315 337.534 618.717 337.534 618.12C337.534 616.968 337.79 616.136 338.302 615.624C338.814 615.069 339.518 614.792 340.414 614.792H351.166C352.148 614.792 352.937 615.091 353.534 615.688C354.174 616.285 354.494 617.096 354.494 618.12ZM393.506 604.744H393.186C392.632 606.28 392.013 608.029 391.33 609.992C390.69 611.955 390.008 614.003 389.282 616.136C388.557 618.227 387.874 620.253 387.234 622.216L386.338 626.184C386.082 626.995 385.805 627.891 385.506 628.872C385.25 629.853 384.952 630.856 384.61 631.88C384.312 632.861 384.013 633.8 383.714 634.696C383.458 635.592 383.224 636.381 383.01 637.064C382.584 637.192 382.114 637.299 381.602 637.384C381.133 637.512 380.557 637.576 379.874 637.576C378.509 637.576 377.421 637.32 376.61 636.808C375.842 636.253 375.458 635.443 375.458 634.376C375.458 633.907 375.522 633.416 375.65 632.904C375.821 632.392 375.992 631.816 376.162 631.176C376.589 629.768 377.165 628.019 377.89 625.928C378.616 623.795 379.405 621.491 380.258 619.016C381.112 616.541 381.986 614.045 382.882 611.528C383.821 609.011 384.696 606.664 385.506 604.488C386.317 602.269 387.021 600.413 387.618 598.92C388.13 598.621 388.92 598.344 389.986 598.088C391.053 597.832 392.141 597.704 393.25 597.704C394.701 597.704 396.024 597.917 397.218 598.344C398.456 598.771 399.224 599.453 399.522 600.392C400.418 602.739 401.378 605.427 402.402 608.456C403.426 611.485 404.472 614.643 405.538 617.928C406.605 621.213 407.629 624.413 408.61 627.528C409.592 630.643 410.466 633.459 411.234 635.976C410.808 636.445 410.21 636.829 409.442 637.128C408.717 637.427 407.864 637.576 406.882 637.576C405.474 637.576 404.45 637.32 403.81 636.808C403.213 636.253 402.744 635.421 402.402 634.312L399.778 625.928L398.946 621.832C398.264 619.656 397.581 617.523 396.898 615.432C396.258 613.299 395.64 611.315 395.042 609.48C394.445 607.645 393.933 606.067 393.506 604.744ZM382.754 627.72L385.762 621.384H401.762L402.978 627.72H382.754ZM418.938 606.792L426.17 606.6C426.341 608.221 426.469 609.928 426.554 611.72C426.682 613.512 426.746 615.283 426.746 617.032C426.789 618.781 426.81 620.467 426.81 622.088V636.936C426.512 637.021 426 637.107 425.274 637.192C424.592 637.32 423.909 637.384 423.226 637.384C421.69 637.384 420.581 637.128 419.898 636.616C419.258 636.061 418.938 635.101 418.938 633.736V606.792ZM451.898 628.232L444.602 628.424C444.261 625.139 444.069 621.939 444.026 618.824C443.984 615.667 443.962 612.616 443.962 609.672V598.152C444.346 598.067 444.858 597.96 445.498 597.832C446.181 597.704 446.906 597.64 447.674 597.64C449.168 597.64 450.234 597.917 450.874 598.472C451.557 599.027 451.898 599.965 451.898 601.288V628.232ZM451.898 625.608V621.576V635.976C451.386 636.403 450.704 636.744 449.85 637C448.997 637.299 448.016 637.448 446.906 637.448C445.584 637.448 444.389 637.235 443.322 636.808C442.298 636.381 441.424 635.443 440.698 633.992L431.29 617.16C430.778 616.136 430.224 615.069 429.626 613.96C429.072 612.851 428.538 611.763 428.026 610.696C427.514 609.629 427.045 608.648 426.618 607.752L418.938 609.544V599.496C419.408 598.899 420.09 598.451 420.986 598.152C421.925 597.853 422.928 597.704 423.994 597.704C425.274 597.704 426.448 597.917 427.514 598.344C428.581 598.771 429.477 599.688 430.202 601.096L439.61 617.928C440.165 618.952 440.72 620.019 441.274 621.128C441.872 622.237 442.405 623.325 442.874 624.392C443.386 625.459 443.834 626.44 444.218 627.336L451.898 625.608ZM489.079 617.416C489.079 614.259 488.503 611.699 487.351 609.736C486.242 607.731 484.706 606.259 482.743 605.32C480.823 604.339 478.626 603.848 476.151 603.848C475.212 603.848 474.316 603.891 473.463 603.976C472.652 604.019 471.863 604.104 471.095 604.232V630.792C471.863 630.963 472.716 631.091 473.655 631.176C474.594 631.219 475.532 631.24 476.471 631.24C480.439 631.24 483.532 630.088 485.751 627.784C487.97 625.437 489.079 621.981 489.079 617.416ZM497.399 617.288C497.399 621.896 496.524 625.736 494.775 628.808C493.026 631.837 490.594 634.099 487.479 635.592C484.364 637.085 480.695 637.832 476.471 637.832C475.063 637.832 473.399 637.747 471.479 637.576C469.559 637.448 467.788 637.107 466.167 636.552C464.076 635.827 463.031 634.568 463.031 632.776V601.352C463.031 600.541 463.244 599.923 463.671 599.496C464.14 599.069 464.738 598.728 465.463 598.472C467.042 598.003 468.748 597.683 470.583 597.512C472.46 597.341 474.21 597.256 475.831 597.256C480.14 597.256 483.895 598.003 487.095 599.496C490.338 600.947 492.855 603.144 494.647 606.088C496.482 609.032 497.399 612.765 497.399 617.288ZM531.919 631.368C534.394 631.368 536.228 630.877 537.423 629.896C538.618 628.872 539.215 627.613 539.215 626.12C539.215 624.797 538.746 623.731 537.807 622.92C536.911 622.109 535.524 621.405 533.647 620.808L529.487 619.528C527.354 618.803 525.476 617.992 523.855 617.096C522.276 616.2 521.039 615.048 520.143 613.64C519.29 612.189 518.863 610.419 518.863 608.328C518.863 604.872 520.143 602.141 522.703 600.136C525.306 598.131 528.847 597.128 533.327 597.128C535.716 597.128 537.828 597.384 539.663 597.896C541.54 598.365 543.012 599.027 544.079 599.88C545.188 600.733 545.743 601.736 545.743 602.888C545.743 603.699 545.53 604.424 545.103 605.064C544.719 605.661 544.228 606.152 543.631 606.536C542.65 605.811 541.306 605.192 539.599 604.68C537.892 604.125 536.036 603.848 534.031 603.848C531.812 603.848 530.106 604.253 528.911 605.064C527.716 605.875 527.119 606.963 527.119 608.328C527.119 609.437 527.524 610.333 528.335 611.016C529.188 611.699 530.468 612.296 532.175 612.808L535.887 613.896C539.556 615.005 542.415 616.52 544.463 618.44C546.511 620.317 547.535 622.899 547.535 626.184C547.535 629.683 546.191 632.52 543.503 634.696C540.858 636.872 537.06 637.96 532.111 637.96C529.508 637.96 527.204 637.683 525.199 637.128C523.194 636.573 521.594 635.805 520.399 634.824C519.247 633.843 518.671 632.733 518.671 631.496C518.671 630.557 518.97 629.747 519.567 629.064C520.164 628.381 520.804 627.869 521.487 627.528C522.596 628.467 524.026 629.341 525.775 630.152C527.524 630.963 529.572 631.368 531.919 631.368ZM556.247 611.336H564.311V636.872C563.97 637 563.458 637.107 562.775 637.192C562.093 637.32 561.367 637.384 560.599 637.384C559.063 637.384 557.954 637.107 557.271 636.552C556.589 635.955 556.247 634.973 556.247 633.608V611.336ZM564.311 620.68H556.247V598.152C556.589 598.067 557.122 597.96 557.847 597.832C558.573 597.704 559.298 597.64 560.023 597.64C561.517 597.64 562.605 597.917 563.287 598.472C563.97 598.984 564.311 599.965 564.311 601.416V620.68ZM601.636 617.416C601.636 614.259 601.06 611.699 599.908 609.736C598.799 607.731 597.263 606.259 595.3 605.32C593.38 604.339 591.183 603.848 588.708 603.848C587.77 603.848 586.874 603.891 586.02 603.976C585.21 604.019 584.42 604.104 583.652 604.232V630.792C584.42 630.963 585.274 631.091 586.212 631.176C587.151 631.219 588.09 631.24 589.028 631.24C592.996 631.24 596.09 630.088 598.308 627.784C600.527 625.437 601.636 621.981 601.636 617.416ZM609.956 617.288C609.956 621.896 609.082 625.736 607.332 628.808C605.583 631.837 603.151 634.099 600.036 635.592C596.922 637.085 593.252 637.832 589.028 637.832C587.62 637.832 585.956 637.747 584.036 637.576C582.116 637.448 580.346 637.107 578.724 636.552C576.634 635.827 575.588 634.568 575.588 632.776V601.352C575.588 600.541 575.802 599.923 576.228 599.496C576.698 599.069 577.295 598.728 578.02 598.472C579.599 598.003 581.306 597.683 583.14 597.512C585.018 597.341 586.767 597.256 588.388 597.256C592.698 597.256 596.452 598.003 599.652 599.496C602.895 600.947 605.412 603.144 607.204 606.088C609.039 609.032 609.956 612.765 609.956 617.288ZM627.215 604.744L627.023 598.152H645.007C645.221 598.451 645.413 598.899 645.583 599.496C645.754 600.051 645.839 600.648 645.839 601.288C645.839 602.397 645.583 603.251 645.071 603.848C644.559 604.445 643.855 604.744 642.959 604.744H627.215ZM632.911 598.152L633.039 604.744H615.055C614.842 604.403 614.65 603.955 614.479 603.4C614.309 602.845 614.223 602.227 614.223 601.544C614.223 600.392 614.479 599.539 614.991 598.984C615.503 598.429 616.207 598.152 617.103 598.152H632.911ZM625.935 603.016H633.999V636.872C633.658 637 633.125 637.107 632.399 637.192C631.717 637.32 631.013 637.384 630.287 637.384C628.709 637.384 627.578 637.107 626.895 636.552C626.255 635.955 625.935 634.973 625.935 633.608V603.016ZM661.587 616.968H666.899C669.417 616.968 671.422 616.413 672.915 615.304C674.409 614.195 675.155 612.552 675.155 610.376C675.155 608.243 674.409 606.621 672.915 605.512C671.422 604.403 669.225 603.848 666.323 603.848C665.47 603.848 664.638 603.891 663.827 603.976C663.017 604.019 662.27 604.104 661.587 604.232V616.968ZM667.475 623.304H653.523V601.352C653.523 600.584 653.737 599.987 654.163 599.56C654.633 599.133 655.23 598.792 655.955 598.536C657.321 598.109 658.921 597.789 660.755 597.576C662.633 597.363 664.531 597.256 666.451 597.256C672.083 597.256 676.286 598.429 679.059 600.776C681.875 603.08 683.283 606.259 683.283 610.312C683.283 612.872 682.622 615.133 681.299 617.096C680.019 619.059 678.206 620.595 675.859 621.704C673.513 622.771 670.718 623.304 667.475 623.304ZM666.387 621.256L673.299 619.272C674.366 620.68 675.454 622.109 676.563 623.56C677.715 624.968 678.803 626.355 679.827 627.72C680.894 629.043 681.833 630.259 682.643 631.368C683.497 632.477 684.158 633.395 684.627 634.12C684.329 635.187 683.753 636.019 682.899 636.616C682.089 637.213 681.193 637.512 680.211 637.512C678.931 637.512 677.929 637.235 677.203 636.68C676.521 636.083 675.859 635.293 675.219 634.312L666.387 621.256ZM653.523 620.488H661.651V636.872C661.31 637 660.777 637.107 660.051 637.192C659.369 637.32 658.643 637.384 657.875 637.384C656.339 637.384 655.23 637.107 654.547 636.552C653.865 635.955 653.523 634.973 653.523 633.608V620.488ZM693.18 611.336H701.244V636.872C700.903 637 700.391 637.107 699.708 637.192C699.025 637.32 698.3 637.384 697.532 637.384C695.996 637.384 694.887 637.107 694.204 636.552C693.521 635.955 693.18 634.973 693.18 633.608V611.336ZM701.244 620.68H693.18V598.152C693.521 598.067 694.055 597.96 694.78 597.832C695.505 597.704 696.231 597.64 696.956 597.64C698.449 597.64 699.537 597.917 700.22 598.472C700.903 598.984 701.244 599.965 701.244 601.416V620.68ZM733.193 614.024V619.976H717.705V614.024H733.193ZM727.497 619.976L728.713 615.432C731.998 615.432 734.729 615.88 736.905 616.776C739.124 617.672 740.788 618.909 741.897 620.488C743.006 622.024 743.561 623.837 743.561 625.928C743.561 629.981 742.068 632.989 739.081 634.952C736.094 636.872 731.87 637.832 726.409 637.832C725.342 637.832 724.169 637.789 722.889 637.704C721.652 637.661 720.393 637.533 719.113 637.32C717.876 637.107 716.724 636.851 715.657 636.552C713.566 635.827 712.521 634.568 712.521 632.776V601.352C712.521 600.584 712.734 599.987 713.161 599.56C713.63 599.091 714.228 598.749 714.953 598.536C716.404 598.067 718.089 597.747 720.009 597.576C721.929 597.363 723.913 597.256 725.961 597.256C731.081 597.256 735.049 598.152 737.865 599.944C740.681 601.736 742.089 604.467 742.089 608.136C742.089 610.099 741.534 611.827 740.425 613.32C739.358 614.771 737.737 615.901 735.561 616.712C733.428 617.523 730.74 617.928 727.497 617.928L726.985 614.024C729.332 614.024 731.081 613.555 732.233 612.616C733.385 611.677 733.961 610.355 733.961 608.648C733.961 606.984 733.3 605.725 731.977 604.872C730.654 603.976 728.67 603.528 726.025 603.528C724.958 603.528 723.934 603.571 722.953 603.656C721.972 603.741 721.14 603.848 720.457 603.976V630.92C721.268 631.133 722.249 631.283 723.401 631.368C724.553 631.453 725.684 631.496 726.793 631.496C729.438 631.496 731.508 631.027 733.001 630.088C734.537 629.107 735.305 627.613 735.305 625.608C735.305 623.773 734.644 622.387 733.321 621.448C731.998 620.467 730.057 619.976 727.497 619.976ZM768.865 637.96C765.494 637.96 762.593 637.363 760.161 636.168C757.729 634.931 755.873 633.203 754.593 630.984C753.356 628.765 752.737 626.163 752.737 623.176V618.568H760.801V622.856C760.801 625.587 761.548 627.699 763.041 629.192C764.577 630.643 766.518 631.368 768.865 631.368C771.169 631.368 773.089 630.643 774.625 629.192C776.161 627.699 776.929 625.587 776.929 622.856V618.568H785.057V623.176C785.057 626.163 784.417 628.765 783.137 630.984C781.857 633.203 780.001 634.931 777.569 636.168C775.18 637.363 772.278 637.96 768.865 637.96ZM760.801 620.808H752.737V598.152C753.078 598.067 753.59 597.96 754.273 597.832C754.998 597.704 755.724 597.64 756.449 597.64C757.985 597.64 759.094 597.917 759.777 598.472C760.46 598.984 760.801 599.965 760.801 601.416V620.808ZM785.057 620.872H776.929V598.152C777.27 598.067 777.804 597.96 778.529 597.832C779.254 597.704 779.98 597.64 780.705 597.64C782.198 597.64 783.286 597.917 783.969 598.472C784.694 598.984 785.057 599.965 785.057 601.416V620.872ZM805.553 604.744L805.361 598.152H823.345C823.558 598.451 823.75 598.899 823.921 599.496C824.092 600.051 824.177 600.648 824.177 601.288C824.177 602.397 823.921 603.251 823.409 603.848C822.897 604.445 822.193 604.744 821.297 604.744H805.553ZM811.249 598.152L811.377 604.744H793.393C793.179 604.403 792.987 603.955 792.817 603.4C792.646 602.845 792.561 602.227 792.561 601.544C792.561 600.392 792.817 599.539 793.329 598.984C793.841 598.429 794.545 598.152 795.441 598.152H811.249ZM804.273 603.016H812.337V636.872C811.995 637 811.462 637.107 810.737 637.192C810.054 637.32 809.35 637.384 808.625 637.384C807.046 637.384 805.915 637.107 805.233 636.552C804.593 635.955 804.273 634.973 804.273 633.608V603.016ZM831.925 611.336H839.989V636.872C839.648 637 839.136 637.107 838.453 637.192C837.77 637.32 837.045 637.384 836.277 637.384C834.741 637.384 833.632 637.107 832.949 636.552C832.266 635.955 831.925 634.973 831.925 633.608V611.336ZM839.989 620.68H831.925V598.152C832.266 598.067 832.8 597.96 833.525 597.832C834.25 597.704 834.976 597.64 835.701 597.64C837.194 597.64 838.282 597.917 838.965 598.472C839.648 598.984 839.989 599.965 839.989 601.416V620.68ZM887.938 617.544C887.938 621.981 887.085 625.736 885.378 628.808C883.714 631.837 881.41 634.12 878.466 635.656C875.565 637.192 872.258 637.96 868.546 637.96C864.877 637.96 861.57 637.192 858.626 635.656C855.725 634.12 853.421 631.837 851.714 628.808C850.05 625.736 849.218 621.981 849.218 617.544C849.218 613.107 850.071 609.373 851.778 606.344C853.527 603.315 855.853 601.032 858.754 599.496C861.698 597.917 864.962 597.128 868.546 597.128C872.215 597.128 875.501 597.917 878.402 599.496C881.346 601.032 883.671 603.315 885.378 606.344C887.085 609.373 887.938 613.107 887.938 617.544ZM879.682 617.544C879.682 613.064 878.658 609.651 876.61 607.304C874.605 604.957 871.917 603.784 868.546 603.784C865.261 603.784 862.594 604.957 860.546 607.304C858.541 609.651 857.538 613.064 857.538 617.544C857.538 622.067 858.541 625.501 860.546 627.848C862.551 630.195 865.239 631.368 868.61 631.368C871.981 631.368 874.669 630.195 876.674 627.848C878.679 625.501 879.682 622.067 879.682 617.544ZM897.108 606.792L904.34 606.6C904.511 608.221 904.639 609.928 904.724 611.72C904.852 613.512 904.916 615.283 904.916 617.032C904.959 618.781 904.98 620.467 904.98 622.088V636.936C904.682 637.021 904.17 637.107 903.444 637.192C902.762 637.32 902.079 637.384 901.396 637.384C899.86 637.384 898.751 637.128 898.068 636.616C897.428 636.061 897.108 635.101 897.108 633.736V606.792ZM930.068 628.232L922.772 628.424C922.431 625.139 922.239 621.939 922.196 618.824C922.154 615.667 922.132 612.616 922.132 609.672V598.152C922.516 598.067 923.028 597.96 923.668 597.832C924.351 597.704 925.076 597.64 925.844 597.64C927.338 597.64 928.404 597.917 929.044 598.472C929.727 599.027 930.068 599.965 930.068 601.288V628.232ZM930.068 625.608V621.576V635.976C929.556 636.403 928.874 636.744 928.02 637C927.167 637.299 926.186 637.448 925.076 637.448C923.754 637.448 922.559 637.235 921.492 636.808C920.468 636.381 919.594 635.443 918.868 633.992L909.46 617.16C908.948 616.136 908.394 615.069 907.796 613.96C907.242 612.851 906.708 611.763 906.196 610.696C905.684 609.629 905.215 608.648 904.788 607.752L897.108 609.544V599.496C897.578 598.899 898.26 598.451 899.156 598.152C900.095 597.853 901.098 597.704 902.164 597.704C903.444 597.704 904.618 597.917 905.684 598.344C906.751 598.771 907.647 599.688 908.372 601.096L917.78 617.928C918.335 618.952 918.89 620.019 919.444 621.128C920.042 622.237 920.575 623.325 921.044 624.392C921.556 625.459 922.004 626.44 922.388 627.336L930.068 625.608Z" fill="#DF8237"/>
<path d="M247.118 550.823V377.483H279.344V550.823H247.118ZM162.889 550.823V377.483H195.116V550.823H162.889ZM168.016 479.412V449.627H274.828V479.412H168.016ZM311.815 550.823V377.483H344.042V550.823H311.815ZM311.815 550.823V521.16H430.711V550.823H311.815ZM311.815 478.923V449.138H408.739V478.923H311.815ZM311.815 407.146V377.483H430.711V407.146H311.815ZM487.596 501.14V471.477H511.4C522.061 471.477 530.28 468.547 536.058 462.688C541.918 456.829 544.847 448.65 544.847 438.152C544.847 428.224 541.918 420.574 536.058 415.203C530.28 409.832 522.061 407.146 511.4 407.146H488.085V377.483H511.4C533.128 377.483 549.933 382.61 561.815 392.864C573.697 403.036 579.637 417.441 579.637 436.077C579.637 456.747 573.697 472.779 561.815 484.172C549.933 495.484 533.128 501.14 511.4 501.14H487.596ZM458.299 550.823V377.483H490.526V550.823H458.299ZM644.457 550.823V377.483H676.683V550.823H644.457ZM595.018 407.146V377.483H726.122V407.146H595.018ZM737.23 550.823L787.279 377.483H826.83L876.878 550.823H842.088L808.153 419.841H805.956L772.02 550.823H737.23ZM762.499 517.986V488.201H850.389V517.986H762.499Z" fill="#FBFAEC"/>
<path d="M385.825 714.07C442.552 711.567 487.321 755.433 502.615 777.679C529.727 735.968 559.759 720.952 592.293 715.113C624.828 709.273 663.549 732.84 678.843 745.353C659.031 770.38 624.619 806.876 584.994 806.876C559.133 806.876 525.208 792.973 513.043 786.021C470.289 803.748 453.605 850.673 385.825 850.673C306.574 841.288 295.104 851.368 274.249 856.929C257.564 773.508 314.917 717.198 385.825 714.07Z" fill="#80AA3E"/>
<path d="M400.424 698.632C363.718 697.798 347.242 706.974 310.745 727.829C326.387 706.974 357.67 685.076 402.509 681.947C441.016 679.261 476.893 703.846 490.102 717.402C507.829 698.632 543.283 686.119 580.823 682.99C622.597 679.509 650.341 709.059 659.031 724.701C621.491 703.846 624.619 701.76 595.422 699.675C548.817 696.346 513.39 734.781 501.572 752.856C476.546 721.573 446.306 699.675 400.424 698.632Z" fill="#D9D9D9"/>
<path d="M729.352 726.465V726.219H724.781C724.383 726.219 723.967 726.195 723.533 726.149C723.112 726.102 722.725 725.996 722.373 725.832C722.022 725.668 721.729 725.422 721.494 725.094C721.272 724.766 721.16 724.32 721.16 723.758C721.16 723.207 721.272 722.774 721.494 722.457C721.729 722.129 722.022 721.883 722.373 721.719C722.725 721.555 723.112 721.449 723.533 721.403C723.967 721.356 724.383 721.332 724.781 721.332H732.621C733.09 721.332 733.506 721.408 733.869 721.561C734.244 721.713 734.555 721.918 734.801 722.176C735.059 722.422 735.252 722.709 735.381 723.037C735.51 723.365 735.574 723.699 735.574 724.039C735.574 724.238 735.557 724.432 735.522 724.619C735.498 724.807 735.434 724.988 735.328 725.164L732.164 730.438C732.703 730.66 733.231 730.959 733.746 731.334C734.262 731.697 734.719 732.16 735.117 732.723C735.528 733.285 735.85 733.953 736.084 734.727C736.33 735.488 736.453 736.367 736.453 737.363C736.453 738.488 736.33 739.49 736.084 740.369C735.85 741.237 735.528 741.992 735.117 742.637C734.719 743.281 734.244 743.826 733.694 744.272C733.154 744.705 732.574 745.057 731.953 745.326C731.344 745.596 730.711 745.789 730.055 745.906C729.399 746.024 728.754 746.082 728.121 746.082C727.641 746.082 727.125 746.035 726.574 745.942C726.024 745.848 725.473 745.701 724.922 745.502C724.383 745.303 723.862 745.063 723.358 744.781C722.865 744.488 722.426 744.143 722.039 743.744C721.653 743.346 721.342 742.901 721.108 742.408C720.885 741.916 720.774 741.371 720.774 740.774C720.774 740.481 720.815 740.205 720.897 739.947C720.979 739.678 721.102 739.444 721.266 739.244C721.442 739.033 721.658 738.869 721.916 738.752C722.174 738.623 722.485 738.559 722.848 738.559C723.328 738.559 723.774 738.694 724.184 738.963C724.606 739.233 724.957 739.649 725.238 740.211C725.309 740.34 725.414 740.487 725.555 740.651C725.707 740.815 725.901 740.967 726.135 741.108C726.381 741.248 726.674 741.371 727.014 741.477C727.354 741.57 727.746 741.617 728.192 741.617C728.871 741.617 729.428 741.512 729.862 741.301C730.307 741.078 730.658 740.791 730.916 740.44C731.174 740.088 731.35 739.69 731.444 739.244C731.549 738.799 731.602 738.348 731.602 737.891C731.602 737.363 731.514 736.877 731.338 736.432C731.162 735.987 730.922 735.6 730.617 735.272C730.324 734.944 729.985 734.692 729.598 734.516C729.223 734.328 728.836 734.235 728.438 734.235C727.875 734.235 727.418 734.065 727.067 733.725C726.715 733.385 726.539 732.922 726.539 732.336C726.539 732.09 726.586 731.82 726.68 731.528C726.774 731.223 726.926 730.883 727.137 730.508L729.352 726.465ZM762.068 740.246C761.728 740.246 761.435 740.182 761.189 740.053C760.955 739.924 760.75 739.76 760.574 739.561C760.398 739.362 760.246 739.139 760.117 738.893C760 738.647 759.9 738.406 759.818 738.172L756.478 728.539H756.021V743.199C756.021 743.574 755.998 743.926 755.951 744.254C755.904 744.582 755.799 744.875 755.635 745.133C755.482 745.379 755.248 745.578 754.931 745.731C754.627 745.871 754.205 745.942 753.666 745.942C753.056 745.942 752.576 745.871 752.224 745.731C751.873 745.578 751.609 745.379 751.433 745.133C751.258 744.875 751.146 744.582 751.099 744.254C751.053 743.926 751.029 743.574 751.029 743.199V725.34C751.029 724.836 751.041 724.344 751.064 723.863C751.099 723.383 751.199 722.955 751.363 722.58C751.527 722.205 751.785 721.906 752.137 721.684C752.5 721.449 753.01 721.332 753.666 721.332H756.056C756.455 721.332 756.789 721.35 757.058 721.385C757.34 721.408 757.597 721.508 757.832 721.684C758.066 721.848 758.295 722.117 758.517 722.492C758.752 722.867 759.004 723.401 759.273 724.092C759.554 724.772 759.877 725.645 760.24 726.711C760.603 727.766 761.049 729.067 761.576 730.613L762.033 732.02H762.455L763.017 730.262C763.498 728.785 763.908 727.537 764.248 726.518C764.588 725.498 764.887 724.66 765.144 724.004C765.402 723.336 765.631 722.826 765.83 722.475C766.041 722.112 766.258 721.848 766.48 721.684C766.715 721.508 766.967 721.408 767.236 721.385C767.506 721.35 767.834 721.332 768.221 721.332H770.787C771.443 721.332 771.947 721.449 772.299 721.684C772.662 721.906 772.926 722.205 773.09 722.58C773.254 722.955 773.347 723.383 773.371 723.863C773.406 724.344 773.424 724.836 773.424 725.34V743.199C773.424 743.574 773.4 743.926 773.353 744.254C773.306 744.582 773.195 744.875 773.019 745.133C772.844 745.379 772.58 745.578 772.228 745.731C771.877 745.871 771.396 745.942 770.787 745.942C770.248 745.942 769.82 745.871 769.504 745.731C769.199 745.578 768.965 745.379 768.801 745.133C768.648 744.875 768.549 744.582 768.502 744.254C768.455 743.926 768.431 743.574 768.431 743.199V728.539H767.939L764.635 738.172C764.541 738.406 764.435 738.647 764.318 738.893C764.201 739.139 764.054 739.362 763.879 739.561C763.703 739.76 763.498 739.924 763.263 740.053C763.029 740.182 762.748 740.246 762.42 740.246H762.068ZM781.432 735.324H787.022L784.421 725.903H784.034L781.432 735.324ZM792.471 737.047C792.495 737.844 792.524 738.658 792.559 739.49C792.594 740.322 792.612 741.125 792.612 741.899V742.426C792.612 742.871 792.594 743.305 792.559 743.727C792.536 744.137 792.448 744.512 792.296 744.852C792.143 745.18 791.903 745.444 791.575 745.643C791.247 745.842 790.784 745.942 790.186 745.942C789.577 745.942 789.108 745.842 788.78 745.643C788.452 745.444 788.206 745.18 788.042 744.852C787.889 744.524 787.796 744.149 787.76 743.727C787.737 743.305 787.725 742.871 787.725 742.426V739.965H780.694V742.426C780.694 742.871 780.676 743.305 780.641 743.727C780.618 744.149 780.524 744.524 780.36 744.852C780.208 745.18 779.967 745.444 779.639 745.643C779.311 745.842 778.842 745.942 778.233 745.942C777.624 745.942 777.155 745.842 776.827 745.643C776.499 745.444 776.258 745.18 776.106 744.852C775.954 744.512 775.866 744.137 775.842 743.727C775.819 743.305 775.807 742.871 775.807 742.426V741.899C775.807 741.535 775.807 741.149 775.807 740.738C775.819 740.328 775.831 739.912 775.842 739.49C775.854 739.069 775.866 738.653 775.878 738.242C775.889 737.82 775.901 737.422 775.913 737.047C776.499 735.008 777.114 732.945 777.758 730.86C778.403 728.762 779.018 726.688 779.604 724.637C779.721 724.203 779.862 723.787 780.026 723.389C780.19 722.979 780.407 722.627 780.676 722.334C780.946 722.029 781.292 721.789 781.713 721.613C782.135 721.426 782.674 721.332 783.331 721.332H785.088C785.733 721.332 786.266 721.426 786.688 721.613C787.122 721.789 787.473 722.029 787.743 722.334C788.012 722.627 788.223 722.979 788.376 723.389C788.54 723.787 788.686 724.203 788.815 724.637L792.471 737.047ZM801.886 721.192C803.175 721.192 804.283 721.338 805.208 721.631C806.146 721.924 806.931 722.305 807.564 722.774C808.208 723.242 808.724 723.776 809.111 724.373C809.497 724.959 809.79 725.557 809.99 726.166C810.201 726.776 810.335 727.362 810.394 727.924C810.464 728.487 810.499 728.973 810.499 729.383C810.499 729.559 810.482 729.776 810.447 730.033C810.423 730.279 810.324 730.52 810.148 730.754C809.972 730.988 809.691 731.188 809.304 731.352C808.929 731.516 808.39 731.598 807.687 731.598C807.453 731.598 807.16 731.586 806.808 731.563C806.456 731.528 806.117 731.451 805.788 731.334C805.46 731.205 805.179 731.029 804.945 730.807C804.71 730.572 804.593 730.25 804.593 729.84C804.593 729.207 804.552 728.639 804.47 728.135C804.4 727.631 804.265 727.203 804.066 726.852C803.867 726.5 803.591 726.231 803.24 726.043C802.888 725.856 802.437 725.762 801.886 725.762C801.312 725.762 800.867 725.885 800.55 726.131C800.246 726.365 800.023 726.623 799.882 726.904C799.718 727.244 799.624 727.625 799.601 728.047V739.192C799.624 739.707 799.718 740.158 799.882 740.545C800.023 740.885 800.246 741.195 800.55 741.477C800.867 741.758 801.312 741.899 801.886 741.899C802.437 741.899 802.888 741.787 803.24 741.565C803.591 741.33 803.867 741.02 804.066 740.633C804.265 740.246 804.4 739.801 804.47 739.297C804.552 738.793 804.593 738.266 804.593 737.715C804.593 737.539 804.622 737.358 804.681 737.17C804.74 736.983 804.874 736.813 805.085 736.66C805.296 736.496 805.607 736.362 806.017 736.256C806.427 736.151 806.984 736.098 807.687 736.098C808.39 736.098 808.929 736.18 809.304 736.344C809.691 736.496 809.972 736.678 810.148 736.889C810.324 737.088 810.423 737.287 810.447 737.487C810.482 737.674 810.499 737.797 810.499 737.856C810.499 739.145 810.283 740.299 809.849 741.319C809.415 742.326 808.8 743.182 808.003 743.885C807.218 744.588 806.275 745.127 805.173 745.502C804.083 745.865 802.882 746.047 801.57 746.047C801.359 746.047 801.013 746.029 800.533 745.994C800.064 745.959 799.537 745.865 798.951 745.713C798.365 745.561 797.761 745.332 797.14 745.028C796.519 744.723 795.951 744.301 795.435 743.762C794.931 743.211 794.515 742.531 794.187 741.723C793.859 740.903 793.695 739.906 793.695 738.735V728.926C793.695 727.965 793.812 727.115 794.046 726.377C794.281 725.639 794.585 725 794.96 724.461C795.347 723.91 795.787 723.453 796.279 723.09C796.771 722.715 797.275 722.404 797.79 722.158C798.986 721.596 800.351 721.274 801.886 721.192ZM834.04 721.332C834.509 721.332 834.983 721.356 835.464 721.403C835.944 721.449 836.378 721.561 836.765 721.737C837.151 721.912 837.468 722.176 837.714 722.528C837.96 722.867 838.083 723.336 838.083 723.934C838.083 724.531 837.96 725.006 837.714 725.358C837.468 725.697 837.151 725.955 836.765 726.131C836.378 726.307 835.944 726.418 835.464 726.465C834.983 726.512 834.509 726.535 834.04 726.535H829.856V731.106H832.071C832.528 731.106 832.997 731.123 833.478 731.158C833.958 731.194 834.392 731.293 834.778 731.457C835.165 731.621 835.481 731.879 835.728 732.231C835.985 732.582 836.114 733.074 836.114 733.707C836.114 734.34 835.991 734.832 835.745 735.184C835.499 735.535 835.183 735.793 834.796 735.957C834.409 736.121 833.976 736.221 833.495 736.256C833.015 736.291 832.54 736.309 832.071 736.309H829.856V741.899C829.856 742.414 829.839 742.912 829.804 743.393C829.78 743.873 829.681 744.307 829.505 744.694C829.341 745.069 829.077 745.373 828.714 745.608C828.351 745.83 827.841 745.942 827.185 745.942C826.517 745.942 826.001 745.83 825.638 745.608C825.274 745.373 825.011 745.069 824.847 744.694C824.683 744.307 824.583 743.873 824.548 743.393C824.524 742.912 824.513 742.414 824.513 741.899V725.375C824.513 724.871 824.524 724.379 824.548 723.899C824.583 723.418 824.683 722.99 824.847 722.615C825.011 722.229 825.274 721.918 825.638 721.684C826.001 721.449 826.517 721.332 827.185 721.332H834.04ZM843.666 735.324H849.256L846.654 725.903H846.267L843.666 735.324ZM854.705 737.047C854.728 737.844 854.758 738.658 854.793 739.49C854.828 740.322 854.846 741.125 854.846 741.899V742.426C854.846 742.871 854.828 743.305 854.793 743.727C854.769 744.137 854.681 744.512 854.529 744.852C854.377 745.18 854.137 745.444 853.808 745.643C853.48 745.842 853.017 745.942 852.42 745.942C851.81 745.942 851.342 745.842 851.013 745.643C850.685 745.444 850.439 745.18 850.275 744.852C850.123 744.524 850.029 744.149 849.994 743.727C849.971 743.305 849.959 742.871 849.959 742.426V739.965H842.928V742.426C842.928 742.871 842.91 743.305 842.875 743.727C842.851 744.149 842.758 744.524 842.594 744.852C842.441 745.18 842.201 745.444 841.873 745.643C841.545 745.842 841.076 745.942 840.467 745.942C839.857 745.942 839.388 745.842 839.06 745.643C838.732 745.444 838.492 745.18 838.34 744.852C838.187 744.512 838.099 744.137 838.076 743.727C838.053 743.305 838.041 742.871 838.041 742.426V741.899C838.041 741.535 838.041 741.149 838.041 740.738C838.053 740.328 838.064 739.912 838.076 739.49C838.088 739.069 838.099 738.653 838.111 738.242C838.123 737.82 838.135 737.422 838.146 737.047C838.732 735.008 839.347 732.945 839.992 730.86C840.637 728.762 841.252 726.688 841.838 724.637C841.955 724.203 842.096 723.787 842.26 723.389C842.424 722.979 842.64 722.627 842.91 722.334C843.18 722.029 843.525 721.789 843.947 721.613C844.369 721.426 844.908 721.332 845.564 721.332H847.322C847.967 721.332 848.5 721.426 848.922 721.613C849.355 721.789 849.707 722.029 849.976 722.334C850.246 722.627 850.457 722.979 850.609 723.389C850.773 723.787 850.92 724.203 851.049 724.637L854.705 737.047ZM856.842 725.34C856.842 724.836 856.854 724.344 856.878 723.863C856.913 723.383 857.012 722.955 857.176 722.58C857.34 722.205 857.598 721.906 857.95 721.684C858.313 721.449 858.823 721.332 859.479 721.332H865.28C866.721 721.403 868.01 721.707 869.147 722.246C869.628 722.481 870.096 722.774 870.553 723.125C871.022 723.465 871.438 723.893 871.801 724.408C872.165 724.912 872.458 725.51 872.68 726.201C872.903 726.893 873.014 727.695 873.014 728.61C873.014 728.797 872.997 729.049 872.962 729.365C872.926 729.67 872.85 730.01 872.733 730.385C872.616 730.748 872.458 731.129 872.258 731.528C872.059 731.926 871.796 732.307 871.467 732.67C871.139 733.033 870.735 733.367 870.255 733.672C869.786 733.977 869.229 734.223 868.585 734.41C868.995 734.574 869.411 734.791 869.833 735.061C870.255 735.319 870.635 735.653 870.975 736.063C871.315 736.473 871.59 736.965 871.801 737.539C872.024 738.113 872.135 738.781 872.135 739.543V742.039C872.135 742.18 872.171 742.297 872.241 742.391C872.311 742.485 872.381 742.567 872.452 742.637C872.733 742.918 872.897 743.164 872.944 743.375C872.991 743.574 873.014 743.738 873.014 743.867C873.014 744.278 872.932 744.623 872.768 744.904C872.604 745.186 872.387 745.414 872.118 745.59C871.86 745.766 871.561 745.889 871.221 745.959C870.893 746.041 870.553 746.082 870.202 746.082C869.815 746.082 869.422 746.024 869.024 745.906C868.626 745.778 868.262 745.596 867.934 745.362C867.606 745.127 867.337 744.834 867.126 744.483C866.926 744.131 866.827 743.727 866.827 743.27V739.543C866.827 739.028 866.792 738.553 866.721 738.119C866.651 737.686 866.516 737.311 866.317 736.994C866.118 736.678 865.842 736.432 865.491 736.256C865.139 736.08 864.682 735.992 864.12 735.992H862.151V741.863C862.151 742.379 862.133 742.883 862.098 743.375C862.075 743.867 861.981 744.307 861.817 744.694C861.653 745.069 861.389 745.373 861.026 745.608C860.663 745.83 860.147 745.942 859.479 745.942C858.823 745.942 858.313 745.83 857.95 745.608C857.598 745.373 857.34 745.069 857.176 744.694C857.012 744.307 856.913 743.867 856.878 743.375C856.854 742.883 856.842 742.379 856.842 741.863V725.34ZM864.542 732.055C865.128 732.031 865.655 731.891 866.124 731.633C866.323 731.528 866.516 731.393 866.704 731.229C866.891 731.065 867.061 730.86 867.213 730.613C867.366 730.367 867.483 730.08 867.565 729.752C867.659 729.424 867.706 729.043 867.706 728.61C867.706 728.223 867.659 727.883 867.565 727.59C867.483 727.285 867.372 727.022 867.231 726.799C867.09 726.576 866.926 726.389 866.739 726.237C866.563 726.084 866.381 725.961 866.194 725.867C865.749 725.645 865.245 725.516 864.682 725.481H862.151V732.055H864.542ZM886.402 740.246C886.062 740.246 885.769 740.182 885.523 740.053C885.288 739.924 885.083 739.76 884.908 739.561C884.732 739.362 884.579 739.139 884.451 738.893C884.333 738.647 884.234 738.406 884.152 738.172L880.812 728.539H880.355V743.199C880.355 743.574 880.331 743.926 880.285 744.254C880.238 744.582 880.132 744.875 879.968 745.133C879.816 745.379 879.581 745.578 879.265 745.731C878.96 745.871 878.538 745.942 877.999 745.942C877.39 745.942 876.91 745.871 876.558 745.731C876.206 745.578 875.943 745.379 875.767 745.133C875.591 744.875 875.48 744.582 875.433 744.254C875.386 743.926 875.363 743.574 875.363 743.199V725.34C875.363 724.836 875.374 724.344 875.398 723.863C875.433 723.383 875.533 722.955 875.697 722.58C875.861 722.205 876.119 721.906 876.47 721.684C876.833 721.449 877.343 721.332 877.999 721.332H880.39C880.788 721.332 881.122 721.35 881.392 721.385C881.673 721.408 881.931 721.508 882.165 721.684C882.4 721.848 882.628 722.117 882.851 722.492C883.085 722.867 883.337 723.401 883.607 724.092C883.888 724.772 884.21 725.645 884.574 726.711C884.937 727.766 885.382 729.067 885.91 730.613L886.367 732.02H886.788L887.351 730.262C887.831 728.785 888.242 727.537 888.581 726.518C888.921 725.498 889.22 724.66 889.478 724.004C889.736 723.336 889.964 722.826 890.163 722.475C890.374 722.112 890.591 721.848 890.814 721.684C891.048 721.508 891.3 721.408 891.57 721.385C891.839 721.35 892.167 721.332 892.554 721.332H895.121C895.777 721.332 896.281 721.449 896.632 721.684C896.996 721.906 897.259 722.205 897.423 722.58C897.587 722.955 897.681 723.383 897.704 723.863C897.74 724.344 897.757 724.836 897.757 725.34V743.199C897.757 743.574 897.734 743.926 897.687 744.254C897.64 744.582 897.529 744.875 897.353 745.133C897.177 745.379 896.913 745.578 896.562 745.731C896.21 745.871 895.73 745.942 895.121 745.942C894.581 745.942 894.154 745.871 893.837 745.731C893.533 745.578 893.298 745.379 893.134 745.133C892.982 744.875 892.882 744.582 892.835 744.254C892.788 743.926 892.765 743.574 892.765 743.199V728.539H892.273L888.968 738.172C888.874 738.406 888.769 738.647 888.652 738.893C888.535 739.139 888.388 739.362 888.212 739.561C888.037 739.76 887.831 739.924 887.597 740.053C887.363 740.182 887.081 740.246 886.753 740.246H886.402Z" fill="white"/>
</svg>
